<?xml version="1.0" encoding="UTF-8"?>
<svg version="1.1" xmlns="http://www.w3.org/2000/svg" width="1920" height="1080">
<path d="M0 0 C0 228.36 0 456.72 0 692 C-132.33 692 -264.66 692 -401 692 C-401 690.35 -401 688.7 -401 687 C-398.8125 685.5625 -398.8125 685.5625 -396 684 C-394.75411224 682.53049136 -393.5100964 681.05825956 -392.3203125 679.54296875 C-390.17700167 677.03821202 -387.53176913 675.1008297 -385 673 C-384.34 672.175 -383.68 671.35 -383 670.5 C-380.63304851 667.54131064 -377.93165 665.39318368 -375 663 C-372.15993769 660.30194081 -369.56658849 657.50490618 -367.0625 654.5 C-364.29941943 651.22681225 -361.32856088 648.69117688 -358 646 C-355.15993769 643.30194081 -352.56658849 640.50490618 -350.0625 637.5 C-348.13681861 635.21294395 -346.20805098 633.24379146 -343.875 631.375 C-340.97687894 629.14548816 -340.97687894 629.14548816 -339 626.5 C-336.63956803 623.54946004 -333.89848263 621.41540219 -331 619 C-330.34 618.175 -329.68 617.35 -329 616.5 C-326.63304851 613.54131064 -323.93165 611.39318368 -321 609 C-317.22588946 605.41943359 -313.87772769 601.56507912 -310.55078125 597.57421875 C-310.03902344 597.05472656 -309.52726563 596.53523437 -309 596 C-308.34 596 -307.68 596 -307 596 C-306.34 594.68 -305.68 593.36 -305 592 C-304.34 592 -303.68 592 -303 592 C-303 591.34 -303 590.68 -303 590 C-301.54076817 588.77291869 -300.0769563 587.55052395 -298.58203125 586.3671875 C-296.7849699 584.9072774 -296.7849699 584.9072774 -294.9375 582.3125 C-292.74907044 579.70050342 -291.10332425 579.22499641 -288 578 C-286.94978897 576.15028304 -286.94978897 576.15028304 -286 574 C-281.66666667 569.22222222 -281.66666667 569.22222222 -278 568 C-277.731875 567.2575 -277.46375 566.515 -277.1875 565.75 C-275.8501945 562.65308199 -274.14243902 561.28642629 -271.5078125 559.25 C-269.79312922 557.91434731 -269.79312922 557.91434731 -268 555.5 C-265.63956803 552.54946004 -262.89848263 550.41540219 -260 548 C-259.319375 547.113125 -258.63875 546.22625 -257.9375 545.3125 C-256 543 -256 543 -253.375 542 C-252.59125 541.67 -251.8075 541.34 -251 541 C-250.32558869 539.3364521 -249.6599679 537.66933058 -249 536 C-247.12545997 534.04580529 -245.2077433 532.60981283 -243 531 C-242.34 531 -241.68 531 -241 531 C-240.773125 530.21625 -240.54625 529.4325 -240.3125 528.625 C-238.66562962 525.33125925 -237.35641647 525.20486745 -234 524 C-233.67 523.01 -233.34 522.02 -233 521 C-232.34 521 -231.68 521 -231 521 C-229.44583936 518.66875905 -228.92048321 517.49035355 -229.375 514.6875 C-231.45225834 511.25203428 -234.10557604 509.139847 -237.22265625 506.6484375 C-239 505 -239 505 -240 502 C-241.3153341 501.29848848 -242.65117592 500.63474075 -244 500 C-245.75 498.5 -245.75 498.5 -247 497 C-247 496.34 -247 495.68 -247 495 C-248.32 494.34 -249.64 493.68 -251 493 C-251 492.34 -251 491.68 -251 491 C-251.556875 490.773125 -252.11375 490.54625 -252.6875 490.3125 C-255.65253447 488.6296426 -257.65353689 486.46378626 -260 484 C-261.1446875 482.9171875 -261.1446875 482.9171875 -262.3125 481.8125 C-264 480 -264 480 -264 478 C-264.99 477.67 -265.98 477.34 -267 477 C-267 476.34 -267 475.68 -267 475 C-268.32 474.34 -269.64 473.68 -271 473 C-271 472.34 -271 471.68 -271 471 C-271.99 470.67 -272.98 470.34 -274 470 C-274 469.34 -274 468.68 -274 468 C-275.32 467.34 -276.64 466.68 -278 466 C-278 465.34 -278 464.68 -278 464 C-278.99 463.67 -279.98 463.34 -281 463 C-281 462.34 -281 461.68 -281 461 C-281.598125 460.9175 -282.19625 460.835 -282.8125 460.75 C-285.62932273 459.78423221 -286.47799132 458.51131433 -288 456 C-288 455.34 -288 454.68 -288 454 C-288.99 453.67 -289.98 453.34 -291 453 C-291 452.34 -291 451.68 -291 451 C-291.99 450.67 -292.98 450.34 -294 450 C-294 449.34 -294 448.68 -294 448 C-295.32 447.34 -296.64 446.68 -298 446 C-298 445.34 -298 444.68 -298 444 C-298.5775 443.938125 -299.155 443.87625 -299.75 443.8125 C-302.9036885 442.67366804 -303.96248151 440.63678864 -306 438 C-307.44764704 436.80971244 -308.89626437 435.6204462 -310.359375 434.44921875 C-312.94398174 432.16614947 -315.10186442 429.53858929 -317.33984375 426.921875 C-320.11929266 423.70425414 -322.99339462 420.76819884 -326.375 418.1875 C-329.37491995 415.68756671 -331.77139726 412.9141136 -334.3046875 409.953125 C-336.4231094 407.51254677 -338.68516033 405.25392284 -341 403 C-344.33333333 399.66666667 -347.66666667 396.33333333 -351 393 C-352.1446875 391.9171875 -352.1446875 391.9171875 -353.3125 390.8125 C-355 389 -355 389 -355 387 C-355.99 386.67 -356.98 386.34 -358 386 C-358 385.34 -358 384.68 -358 384 C-359.32 383.34 -360.64 382.68 -362 382 C-362 381.34 -362 380.68 -362 380 C-362.99 379.67 -363.98 379.34 -365 379 C-365 378.34 -365 377.68 -365 377 C-365.61875 376.71125 -366.2375 376.4225 -366.875 376.125 C-369 375 -369 375 -371 373 C-371.625 370.3125 -371.625 370.3125 -371 367 C-369.16787448 365.02591802 -367.19443708 363.40579866 -365.08984375 361.7265625 C-363.24308579 360.20082975 -361.84262449 358.75163459 -360.375 356.875 C-357.83741692 353.80318891 -355.08720122 351.50835099 -352 349 C-349.15993769 346.30194081 -346.56658849 343.50490618 -344.0625 340.5 C-342.13681861 338.21294395 -340.20805098 336.24379146 -337.875 334.375 C-334.97687894 332.14548816 -334.97687894 332.14548816 -333 329.5 C-331 327 -331 327 -328.0625 324.5625 C-324.86760658 321.88922183 -322.61108933 319.22950523 -320 316 C-317.8125 313.625 -317.8125 313.625 -316 312 C-315.34 312 -314.68 312 -314 312 C-313.67 311.01 -313.34 310.02 -313 309 C-311.34211215 307.65576661 -309.67423683 306.32381517 -308 305 C-307.0409375 303.7934375 -307.0409375 303.7934375 -306.0625 302.5625 C-304 300 -304 300 -301.0625 297.5625 C-297.93786005 294.94800535 -295.59536317 292.12774536 -293 289 C-291.33333333 287.66666667 -289.66666667 286.33333333 -288 285 C-287.175 284.01 -286.35 283.02 -285.5 282 C-283.16481763 279.19778116 -280.83099035 277.26479228 -278 275 C-276.80907114 273.55157301 -275.61927558 272.10205807 -274.44921875 270.63671875 C-272.76564364 268.7353226 -270.93471556 267.14432674 -269 265.5 C-266.55303142 263.41961847 -264.37353688 261.38928833 -262.375 258.875 C-259.84147587 255.80810237 -257.05049784 253.54208154 -254 251 C-253.06139749 249.91441853 -252.14392153 248.81016028 -251.25 247.6875 C-250.13625 246.3571875 -250.13625 246.3571875 -249 245 C-248.34 245 -247.68 245 -247 245 C-246.67 244.01 -246.34 243.02 -246 242 C-244.0625 239.8125 -244.0625 239.8125 -242 238 C-241.34 238 -240.68 238 -240 238 C-239.67 237.01 -239.34 236.02 -239 235 C-237.33784732 233.66104368 -235.67036393 232.32869858 -234 231 C-233.175 230.01 -232.35 229.02 -231.5 228 C-229 225 -229 225 -226.5625 223.0625 C-223.71371516 220.76957562 -221.60175701 218.24125683 -219.33203125 215.390625 C-218.89246094 214.93171875 -218.45289063 214.4728125 -218 214 C-217.34 214 -216.68 214 -216 214 C-216 213.34 -216 212.68 -216 212 C-214.52295788 210.74772516 -213.04172601 209.49833478 -211.5078125 208.31640625 C-209.73237056 206.88235909 -209.73237056 206.88235909 -208 204 C-207.34 204 -206.68 204 -206 204 C-205.67 203.01 -205.34 202.02 -205 201 C-204.34 201 -203.68 201 -203 201 C-202.7525 200.443125 -202.505 199.88625 -202.25 199.3125 C-200.75571133 196.54806595 -199.12772489 194.31546532 -197 192 C-195.67139075 191.64830932 -194.33841672 191.31229724 -193 191 C-191.71563266 189.0162233 -191.71563266 189.0162233 -191 187 C-190.34 187 -189.68 187 -189 187 C-188.67 186.01 -188.34 185.02 -188 184 C-187.34 184 -186.68 184 -186 184 C-185.67 183.01 -185.34 182.02 -185 181 C-184.34 181 -183.68 181 -183 181 C-182.67 180.01 -182.34 179.02 -182 178 C-181.34 178 -180.68 178 -180 178 C-180 177.01 -180 176.02 -180 175 C-179.0409375 174.566875 -179.0409375 174.566875 -178.0625 174.125 C-175.84793921 173.17176549 -175.84793921 173.17176549 -175 171 C-174.34 171 -173.68 171 -173 171 C-172.67 170.01 -172.34 169.02 -172 168 C-170.55556475 166.78536127 -169.10700503 165.57475397 -167.625 164.40625 C-165.94498085 162.95238728 -164.62811605 161.4265512 -163.25 159.6875 C-162.13625 158.3571875 -162.13625 158.3571875 -161 157 C-160.34 157 -159.68 157 -159 157 C-158.7525 156.443125 -158.505 155.88625 -158.25 155.3125 C-155.44587026 150.12485999 -151.63356433 146.52553808 -147 143 C-146.34 143 -145.68 143 -145 143 C-144.67 142.01 -144.34 141.02 -144 140 C-143.34 140 -142.68 140 -142 140 C-141.7525 139.443125 -141.505 138.88625 -141.25 138.3125 C-138.42172126 133.08018434 -134.51927938 129.76606615 -130 126 C-129.34 125.175 -128.68 124.35 -128 123.5 C-125.63956803 120.54946004 -122.89848263 118.41540219 -120 116 C-119.34 115.175 -118.68 114.35 -118 113.5 C-115.63956803 110.54946004 -112.89848263 108.41540219 -110 106 C-109.34 105.175 -108.68 104.35 -108 103.5 C-105.63304851 100.54131064 -102.93165 98.39318368 -100 96 C-96.97086056 93.12620105 -94.21459741 90.10355313 -91.5 86.9375 C-88.87775792 83.90092096 -86.15179048 81.48825565 -83 79 C-81.7625 77.515 -81.7625 77.515 -80.5 76 C-78.16481763 73.19778116 -75.83099035 71.26479228 -73 69 C-71.7625 67.515 -71.7625 67.515 -70.5 66 C-68.16481763 63.19778116 -65.83099035 61.26479228 -63 59 C-62.175 58.01 -61.35 57.02 -60.5 56 C-58.16481763 53.19778116 -55.83099035 51.26479228 -53 49 C-52.195625 48.030625 -51.39125 47.06125 -50.5625 46.0625 C-47.94800535 42.93786005 -45.12774536 40.59536317 -42 38 C-41.34 37.175 -40.68 36.35 -40 35.5 C-37.63956803 32.54946004 -34.89848263 30.41540219 -32 28 C-31.34 27.175 -30.68 26.35 -30 25.5 C-27.63956803 22.54946004 -24.89848263 20.41540219 -22 18 C-21.34 17.175 -20.68 16.35 -20 15.5 C-18 13 -18 13 -15.0625 10.5625 C-12.77730159 8.65039521 -11.13973427 7.08003169 -9.3125 4.8125 C-6.17968761 1.00232276 -5.00894186 0 0 0 Z " fill="#004DFE" transform="translate(1258,194)"/>
<path d="M0 0 C0.99 0 1.98 0 3 0 C3 0.66 3 1.32 3 2 C3.99 2.33 4.98 2.66 6 3 C6 3.66 6 4.32 6 5 C7.32 5.66 8.64 6.32 10 7 C10 7.66 10 8.32 10 9 C10.99 9.33 11.98 9.66 13 10 C13 10.66 13 11.32 13 12 C13.99 12.33 14.98 12.66 16 13 C18.1875 14.9375 18.1875 14.9375 20 17 C20 17.66 20 18.32 20 19 C20.99 19.33 21.98 19.66 23 20 C24.35386936 21.65002828 25.68678142 23.3174387 27 25 C27.99 25.66 28.98 26.32 30 27 C30 27.66 30 28.32 30 29 C30.99 29.33 31.98 29.66 33 30 C35.1875 31.9375 35.1875 31.9375 37 34 C37 34.66 37 35.32 37 36 C37.99 36.33 38.98 36.66 40 37 C40 37.66 40 38.32 40 39 C40.99 39.33 41.98 39.66 43 40 C45.1875 41.9375 45.1875 41.9375 47 44 C47 44.66 47 45.32 47 46 C47.99 46.33 48.98 46.66 50 47 C50 47.66 50 48.32 50 49 C50.99 49.33 51.98 49.66 53 50 C55.1875 51.9375 55.1875 51.9375 57 54 C57 54.66 57 55.32 57 56 C57.99 56.33 58.98 56.66 60 57 C60 57.66 60 58.32 60 59 C61.32 59.66 62.64 60.32 64 61 C64 61.66 64 62.32 64 63 C65.485 63.495 65.485 63.495 67 64 C67 64.66 67 65.32 67 66 C68.485 66.495 68.485 66.495 70 67 C70 67.66 70 68.32 70 69 C70.78375 69.226875 71.5675 69.45375 72.375 69.6875 C75.66874075 71.33437038 75.79513255 72.64358353 77 76 C78.485 76.495 78.485 76.495 80 77 C82.1875 78.9375 82.1875 78.9375 84 81 C84 81.66 84 82.32 84 83 C85.485 83.495 85.485 83.495 87 84 C89.1875 85.9375 89.1875 85.9375 91 88 C91 88.66 91 89.32 91 90 C92.485 90.495 92.485 90.495 94 91 C94 91.66 94 92.32 94 93 C95.485 93.495 95.485 93.495 97 94 C99.1875 95.9375 99.1875 95.9375 101 98 C101 98.66 101 99.32 101 100 C102.485 100.495 102.485 100.495 104 101 C104 101.66 104 102.32 104 103 C105.485 103.495 105.485 103.495 107 104 C109.1875 105.9375 109.1875 105.9375 111 108 C111 108.66 111 109.32 111 110 C112.485 110.495 112.485 110.495 114 111 C114 111.66 114 112.32 114 113 C114.8971875 113.4021875 114.8971875 113.4021875 115.8125 113.8125 C117.99847854 114.99917406 119.41332594 116.09599113 121 118 C121 118.66 121 119.32 121 120 C122.485 120.495 122.485 120.495 124 121 C124 121.66 124 122.32 124 123 C124.78375 123.226875 125.5675 123.45375 126.375 123.6875 C129.66874075 125.33437038 129.79513255 126.64358353 131 130 C131.99 130.33 132.98 130.66 134 131 C136.1875 132.9375 136.1875 132.9375 138 135 C138 135.66 138 136.32 138 137 C138.99 137.33 139.98 137.66 141 138 C141 138.66 141 139.32 141 140 C141.598125 140.268125 142.19625 140.53625 142.8125 140.8125 C144.99847854 141.99917406 146.41332594 143.09599113 148 145 C148 145.66 148 146.32 148 147 C148.598125 147.268125 149.19625 147.53625 149.8125 147.8125 C151.99847854 148.99917406 153.41332594 150.09599113 155 152 C155 152.66 155 153.32 155 154 C155.99 154.33 156.98 154.66 158 155 C158 155.66 158 156.32 158 157 C158.99 157.33 159.98 157.66 161 158 C163.1875 159.9375 163.1875 159.9375 165 162 C165 162.66 165 163.32 165 164 C165.99 164.33 166.98 164.66 168 165 C168 165.66 168 166.32 168 167 C168.99 167.33 169.98 167.66 171 168 C173.1875 169.9375 173.1875 169.9375 175 172 C175 172.66 175 173.32 175 174 C175.99 174.33 176.98 174.66 178 175 C180.1875 176.9375 180.1875 176.9375 182 179 C182 179.66 182 180.32 182 181 C182.99 181.33 183.98 181.66 185 182 C185 182.66 185 183.32 185 184 C185.99 184.33 186.98 184.66 188 185 C190.1875 186.9375 190.1875 186.9375 192 189 C192 189.66 192 190.32 192 191 C192.99 191.33 193.98 191.66 195 192 C196.35386936 193.65002828 197.68678142 195.3174387 199 197 C199.99 197.66 200.98 198.32 202 199 C202 199.66 202 200.32 202 201 C202.99 201.33 203.98 201.66 205 202 C207.1875 203.9375 207.1875 203.9375 209 206 C209 206.66 209 207.32 209 208 C209.99 208.33 210.98 208.66 212 209 C212 209.66 212 210.32 212 211 C212.99 211.33 213.98 211.66 215 212 C217.1875 213.9375 217.1875 213.9375 219 216 C219 216.66 219 217.32 219 218 C219.99 218.33 220.98 218.66 222 219 C222.48283589 223.05582151 222.24233455 224.65075315 219.875 228.0625 C217.16815186 231.00706002 214.07470373 233.4486501 211 236 C210.34 236.825 209.68 237.65 209 238.5 C206.63956803 241.45053996 203.89848263 243.58459781 201 246 C200.34 246.825 199.68 247.65 199 248.5 C196.63304851 251.45868936 193.93165 253.60681632 191 256 C188.15993769 258.69805919 185.56658849 261.49509382 183.0625 264.5 C180.33155599 267.7421207 177.26369722 270.29182571 174 273 C172.32932867 274.99665598 170.66247014 276.99651034 169 279 C167.33333333 280.33333333 165.66666667 281.66666667 164 283 C163.175 283.99 162.35 284.98 161.5 286 C159.1777811 288.78666267 156.83824909 290.77542639 154 293 C153.34 293.99 152.68 294.98 152 296 C151.34 296 150.68 296 150 296 C149.67 296.99 149.34 297.98 149 299 C147.33784732 300.33895632 145.67036393 301.67130142 144 303 C143.195625 303.969375 142.39125 304.93875 141.5625 305.9375 C138.94800535 309.06213995 136.12774536 311.40463683 133 314 C132.01 315.2375 132.01 315.2375 131 316.5 C128.63956803 319.45053996 125.89848263 321.58459781 123 324 C122.01 325.2375 122.01 325.2375 121 326.5 C119 329 119 329 116.0625 331.4375 C112.93786005 334.05199465 110.59536317 336.87225464 108 340 C106.33729713 341.33827304 104.67083819 342.67189785 103 344 C102.0409375 345.2065625 102.0409375 345.2065625 101.0625 346.4375 C98.67244009 349.40696837 95.92403212 351.56330656 93 354 C92.01 355.2375 92.01 355.2375 91 356.5 C88.63304851 359.45868936 85.93165 361.60681632 83 364 C80.15993769 366.69805919 77.56658849 369.49509382 75.0625 372.5 C73.13681861 374.78705605 71.20805098 376.75620854 68.875 378.625 C65.97687894 380.85451184 65.97687894 380.85451184 64 383.5 C61.63304851 386.45868936 58.93165 388.60681632 56 391 C53.15993769 393.69805919 50.56658849 396.49509382 48.0625 399.5 C46.13681861 401.78705605 44.20805098 403.75620854 41.875 405.625 C38.97687894 407.85451184 38.97687894 407.85451184 37 410.5 C34.63304851 413.45868936 31.93165 415.60681632 29 418 C26.15993769 420.69805919 23.56658849 423.49509382 21.0625 426.5 C19.13681861 428.78705605 17.20805098 430.75620854 14.875 432.625 C12.13595176 434.88769203 10.17034754 437.20955317 8 440 C7.34 440.33 6.68 440.66 6 441 C5.67 441.99 5.34 442.98 5 444 C3.35 444 1.7 444 0 444 C0 297.48 0 150.96 0 0 Z " fill="#000000" transform="translate(662,342)"/>
<path d="M0 0 C0 228.36 0 456.72 0 692 C-132.33 692 -264.66 692 -401 692 C-401 690.35 -401 688.7 -401 687 C-398.8125 685.5625 -398.8125 685.5625 -396 684 C-394.75411224 682.53049136 -393.5100964 681.05825956 -392.3203125 679.54296875 C-390.17700167 677.03821202 -387.53176913 675.1008297 -385 673 C-384.34 672.175 -383.68 671.35 -383 670.5 C-380.63304851 667.54131064 -377.93165 665.39318368 -375 663 C-372.15993769 660.30194081 -369.56658849 657.50490618 -367.0625 654.5 C-364.29941943 651.22681225 -361.32856088 648.69117688 -358 646 C-355.15993769 643.30194081 -352.56658849 640.50490618 -350.0625 637.5 C-348.13681861 635.21294395 -346.20805098 633.24379146 -343.875 631.375 C-340.97687894 629.14548816 -340.97687894 629.14548816 -339 626.5 C-336.63956803 623.54946004 -333.89848263 621.41540219 -331 619 C-330.34 618.175 -329.68 617.35 -329 616.5 C-326.63304851 613.54131064 -323.93165 611.39318368 -321 609 C-317.22588946 605.41943359 -313.87772769 601.56507912 -310.55078125 597.57421875 C-310.03902344 597.05472656 -309.52726563 596.53523437 -309 596 C-308.34 596 -307.68 596 -307 596 C-306.34 594.68 -305.68 593.36 -305 592 C-304.34 592 -303.68 592 -303 592 C-303 591.34 -303 590.68 -303 590 C-301.54076817 588.77291869 -300.0769563 587.55052395 -298.58203125 586.3671875 C-296.7849699 584.9072774 -296.7849699 584.9072774 -294.9375 582.3125 C-292.78341622 579.74149678 -291.16868179 578.96820833 -288 578 C-292.95618494 583.99959229 -298.19226619 589.80855449 -304 595 C-304.66 595 -305.32 595 -306 595 C-306.25562965 595.58039158 -306.51125931 596.16078316 -306.77463531 596.75876236 C-308.12452516 599.22776116 -309.61870209 600.87037077 -311.60583496 602.85980225 C-312.35455368 603.61416061 -313.1032724 604.36851898 -313.87467957 605.14573669 C-315.1075042 606.37248863 -315.1075042 606.37248863 -316.36523438 607.62402344 C-317.66295525 608.92700127 -317.66295525 608.92700127 -318.9868927 610.25630188 C-321.35705851 612.63375893 -323.73163488 615.006631 -326.10861397 617.37726498 C-328.59440727 619.85799341 -331.07531573 622.34359925 -333.55700684 624.82843018 C-337.72305207 628.99811226 -341.89329319 633.163563 -346.06591797 637.32666016 C-350.89462836 642.14447226 -355.71607219 646.96946649 -360.53383207 651.79822707 C-364.66862381 655.94208266 -368.80728515 660.08204317 -372.94923067 664.21874833 C-375.42397884 666.69037366 -377.89734436 669.16334187 -380.36723328 671.63982391 C-383.11737983 674.39679873 -385.87561921 677.14558534 -388.63476562 679.89355469 C-389.45664871 680.71948624 -390.2785318 681.54541779 -391.12532043 682.39637756 C-392.24839851 683.51099617 -392.24839851 683.51099617 -393.39416504 684.64813232 C-394.04604042 685.29925365 -394.6979158 685.95037498 -395.36954498 686.62122726 C-397 688 -397 688 -399 688 C-399 688.99 -399 689.98 -399 691 C-267.99 691 -136.98 691 -2 691 C-2.01160156 641.51417969 -2.02320313 592.02835938 -2.03515625 541.04296875 C-2.03995782 511.65830301 -2.04469191 482.27363757 -2.04816496 452.88897169 C-2.05020626 435.66154409 -2.05229423 418.43411649 -2.05452599 401.20668892 C-2.05479583 399.12278606 -2.0550642 397.0388832 -2.05533109 394.95498034 C-2.05960121 361.7079482 -2.06710743 328.46091776 -2.07629722 295.21388665 C-2.08572162 261.05618458 -2.09188354 226.89848345 -2.09391499 192.7407801 C-2.09420316 187.92101621 -2.0945288 183.10125231 -2.09487724 178.28148842 C-2.09494467 177.33284946 -2.09501209 176.3842105 -2.09508156 175.4068249 C-2.09626526 160.10980135 -2.10090865 144.81278069 -2.10683203 129.51575833 C-2.11270747 114.15318074 -2.11497095 98.79060603 -2.11350138 83.42802735 C-2.11273831 74.29045246 -2.11479067 65.15288807 -2.12079754 56.01531506 C-2.12453189 49.92063584 -2.12467468 43.82596355 -2.12183181 37.73128386 C-2.120314 34.25273504 -2.12041953 30.77420617 -2.12488318 27.29565945 C-2.12885198 23.55797494 -2.12676028 19.82034328 -2.12304783 16.08265972 C-2.12567484 14.98995979 -2.12830186 13.89725986 -2.13100848 12.77144781 C-2.12876118 11.78138173 -2.12651389 10.79131565 -2.1241985 9.77124757 C-2.12435448 8.91569384 -2.12451046 8.06014012 -2.12467116 7.17866052 C-2 5 -2 5 -1 2 C-5.1937955 4.26542871 -8.40179229 7.12335971 -11.72639465 10.48588562 C-12.28194635 11.03972846 -12.83749804 11.59357131 -13.40988463 12.16419727 C-15.26477398 14.01580006 -17.11243806 15.87444593 -18.96020508 17.7331543 C-20.29054527 19.06405878 -21.6213263 20.39452272 -22.95251465 21.72457886 C-26.56196736 25.33345777 -30.16522048 28.9484698 -33.76739717 32.56460929 C-37.53411782 36.3438326 -41.30650314 40.11739276 -45.07829285 43.89155579 C-52.21845953 51.03793859 -59.35351264 58.18940435 -66.48674554 65.34270746 C-74.6085149 73.48683166 -82.73596415 81.62527746 -90.86389697 89.76324975 C-107.58226183 106.50251962 -124.29347631 123.2489127 -141 140 C-141 135.82587583 -138.77296274 133.85984408 -136 131 C-134.00334402 129.32932867 -132.00348966 127.66247014 -130 126 C-129.34 125.175 -128.68 124.35 -128 123.5 C-125.63956803 120.54946004 -122.89848263 118.41540219 -120 116 C-119.34 115.175 -118.68 114.35 -118 113.5 C-115.63956803 110.54946004 -112.89848263 108.41540219 -110 106 C-109.34 105.175 -108.68 104.35 -108 103.5 C-105.63304851 100.54131064 -102.93165 98.39318368 -100 96 C-96.97086056 93.12620105 -94.21459741 90.10355313 -91.5 86.9375 C-88.87775792 83.90092096 -86.15179048 81.48825565 -83 79 C-81.7625 77.515 -81.7625 77.515 -80.5 76 C-78.16481763 73.19778116 -75.83099035 71.26479228 -73 69 C-71.7625 67.515 -71.7625 67.515 -70.5 66 C-68.16481763 63.19778116 -65.83099035 61.26479228 -63 59 C-62.175 58.01 -61.35 57.02 -60.5 56 C-58.16481763 53.19778116 -55.83099035 51.26479228 -53 49 C-52.195625 48.030625 -51.39125 47.06125 -50.5625 46.0625 C-47.94800535 42.93786005 -45.12774536 40.59536317 -42 38 C-41.34 37.175 -40.68 36.35 -40 35.5 C-37.63956803 32.54946004 -34.89848263 30.41540219 -32 28 C-31.34 27.175 -30.68 26.35 -30 25.5 C-27.63956803 22.54946004 -24.89848263 20.41540219 -22 18 C-21.34 17.175 -20.68 16.35 -20 15.5 C-18 13 -18 13 -15.0625 10.5625 C-12.77730159 8.65039521 -11.13973427 7.08003169 -9.3125 4.8125 C-6.17968761 1.00232276 -5.00894186 0 0 0 Z " fill="#003AC0" transform="translate(1258,194)"/>
<path d="M0 0 C0 132.66 0 265.32 0 402 C-0.33 402 -0.66 402 -1 402 C-1 270 -1 138 -1 2 C-5.23546353 4.54127812 -8.3199619 7.04059588 -11.72639465 10.48588562 C-12.28194635 11.03972846 -12.83749804 11.59357131 -13.40988463 12.16419727 C-15.26477398 14.01580006 -17.11243806 15.87444593 -18.96020508 17.7331543 C-20.29054527 19.06405878 -21.6213263 20.39452272 -22.95251465 21.72457886 C-26.56196736 25.33345777 -30.16522048 28.9484698 -33.76739717 32.56460929 C-37.53411782 36.3438326 -41.30650314 40.11739276 -45.07829285 43.89155579 C-52.21845953 51.03793859 -59.35351264 58.18940435 -66.48674554 65.34270746 C-74.6085149 73.48683166 -82.73596415 81.62527746 -90.86389697 89.76324975 C-107.58226183 106.50251962 -124.29347631 123.2489127 -141 140 C-141 135.82587583 -138.77296274 133.85984408 -136 131 C-134.00334402 129.32932867 -132.00348966 127.66247014 -130 126 C-129.34 125.175 -128.68 124.35 -128 123.5 C-125.63956803 120.54946004 -122.89848263 118.41540219 -120 116 C-119.34 115.175 -118.68 114.35 -118 113.5 C-115.63956803 110.54946004 -112.89848263 108.41540219 -110 106 C-109.34 105.175 -108.68 104.35 -108 103.5 C-105.63304851 100.54131064 -102.93165 98.39318368 -100 96 C-96.97086056 93.12620105 -94.21459741 90.10355313 -91.5 86.9375 C-88.87775792 83.90092096 -86.15179048 81.48825565 -83 79 C-82.175 78.01 -81.35 77.02 -80.5 76 C-78.16481763 73.19778116 -75.83099035 71.26479228 -73 69 C-72.175 68.01 -71.35 67.02 -70.5 66 C-68.16481763 63.19778116 -65.83099035 61.26479228 -63 59 C-61.7625 57.515 -61.7625 57.515 -60.5 56 C-58.16481763 53.19778116 -55.83099035 51.26479228 -53 49 C-52.195625 48.030625 -51.39125 47.06125 -50.5625 46.0625 C-47.94800535 42.93786005 -45.12774536 40.59536317 -42 38 C-41.34 37.175 -40.68 36.35 -40 35.5 C-37.63956803 32.54946004 -34.89848263 30.41540219 -32 28 C-31.34 27.175 -30.68 26.35 -30 25.5 C-27.63956803 22.54946004 -24.89848263 20.41540219 -22 18 C-21.34 17.175 -20.68 16.35 -20 15.5 C-18 13 -18 13 -15.0625 10.5625 C-12.77730159 8.65039521 -11.13973427 7.08003169 -9.3125 4.8125 C-6.17968761 1.00232276 -5.00894186 0 0 0 Z " fill="#0037B5" transform="translate(1258,194)"/>
<path d="M0 0 C0.66 0 1.32 0 2 0 C0.40135177 3.95932073 -2.34546148 6.61966851 -5.32766724 9.56817627 C-5.8765721 10.11878999 -6.42547697 10.6694037 -6.99101532 11.23670268 C-8.83190052 13.08088268 -10.67984394 14.91782246 -12.52783203 16.75488281 C-13.84873683 18.0752235 -15.16920144 19.39600468 -16.48925781 20.7171936 C-20.0754691 24.30397939 -23.66781935 27.88455949 -27.26128626 31.46407413 C-31.0151517 35.20544849 -34.76336509 38.95247639 -38.51217651 42.69891357 C-45.6125536 49.79307113 -52.71801417 56.88211445 -59.82530582 63.9693439 C-67.91619819 72.03789202 -76.00142141 80.11211076 -84.08616853 88.18681574 C-100.71780271 104.7975372 -117.35655947 121.40110876 -134 138 C-134 133.82587583 -131.77296274 131.85984408 -129 129 C-127.00334402 127.32932867 -125.00348966 125.66247014 -123 124 C-122.34 123.175 -121.68 122.35 -121 121.5 C-118.63956803 118.54946004 -115.89848263 116.41540219 -113 114 C-112.34 113.175 -111.68 112.35 -111 111.5 C-108.63956803 108.54946004 -105.89848263 106.41540219 -103 104 C-102.34 103.175 -101.68 102.35 -101 101.5 C-98.63304851 98.54131064 -95.93165 96.39318368 -93 94 C-89.97086056 91.12620105 -87.21459741 88.10355313 -84.5 84.9375 C-81.87775792 81.90092096 -79.15179048 79.48825565 -76 77 C-75.175 76.01 -74.35 75.02 -73.5 74 C-71.16481763 71.19778116 -68.83099035 69.26479228 -66 67 C-65.175 66.01 -64.35 65.02 -63.5 64 C-61.16481763 61.19778116 -58.83099035 59.26479228 -56 57 C-54.7625 55.515 -54.7625 55.515 -53.5 54 C-51.16481763 51.19778116 -48.83099035 49.26479228 -46 47 C-45.195625 46.030625 -44.39125 45.06125 -43.5625 44.0625 C-40.94800535 40.93786005 -38.12774536 38.59536317 -35 36 C-34.34 35.175 -33.68 34.35 -33 33.5 C-30.63956803 30.54946004 -27.89848263 28.41540219 -25 26 C-24.34 25.175 -23.68 24.35 -23 23.5 C-20.63956803 20.54946004 -17.89848263 18.41540219 -15 16 C-14.01 14.7625 -14.01 14.7625 -13 13.5 C-11 11 -11 11 -8.0625 8.5625 C-5.73394302 6.61411559 -4.09883979 5.0108208 -2.25 2.6875 C-1.13625 1.3571875 -1.13625 1.3571875 0 0 Z " fill="#002D94" transform="translate(1251,196)"/>
<path d="M0 0 C0.99 0.495 0.99 0.495 2 1 C-0.61691164 3.67470955 -3.24481708 6.33834481 -5.875 9 C-6.62136719 9.763125 -7.36773438 10.52625 -8.13671875 11.3125 C-8.85214844 12.034375 -9.56757812 12.75625 -10.3046875 13.5 C-11.2944458 14.50546875 -11.2944458 14.50546875 -12.30419922 15.53125 C-14 17 -14 17 -16 17 C-16.25562965 17.58053037 -16.51125931 18.16106073 -16.77463531 18.75918293 C-18.12443253 21.22754902 -19.61718006 22.86608012 -21.60583496 24.85307312 C-22.35455368 25.60598633 -23.1032724 26.35889954 -23.87467957 27.1346283 C-24.69656265 27.95089188 -25.51844574 28.76715546 -26.36523438 29.6081543 C-27.66295525 30.90872269 -27.66295525 30.90872269 -28.9868927 32.23556519 C-31.35713911 34.60888031 -33.73176569 36.97764082 -36.10861397 39.34433341 C-38.59469927 41.82162917 -41.07550504 44.30420158 -43.55700684 46.78608704 C-47.72324164 50.95138581 -51.89332874 55.11279582 -56.06591797 59.27172852 C-60.89305341 64.08312364 -65.71492737 68.89974038 -70.53383207 73.71937817 C-75.16809531 78.35425123 -79.80520708 82.98626273 -84.44392395 87.61667824 C-86.41914581 89.58836573 -88.39351273 91.56090355 -90.36723328 93.53409386 C-93.12007951 96.28575129 -95.87716605 99.03313508 -98.63476562 101.7800293 C-99.45664871 102.60236557 -100.2785318 103.42470184 -101.12532043 104.2719574 C-101.87403915 105.01641113 -102.62275787 105.76086487 -103.39416504 106.52787781 C-104.04604042 107.17807734 -104.6979158 107.82827688 -105.36954498 108.49817944 C-107 110 -107 110 -109 111 C-109.66 111.99 -110.32 112.98 -111 114 C-111.3125 111.6875 -111.3125 111.6875 -111 109 C-108.8125 107.5625 -108.8125 107.5625 -106 106 C-104.75411224 104.53049136 -103.5100964 103.05825956 -102.3203125 101.54296875 C-100.17700167 99.03821202 -97.53176913 97.1008297 -95 95 C-94.34 94.175 -93.68 93.35 -93 92.5 C-90.63304851 89.54131064 -87.93165 87.39318368 -85 85 C-82.15993769 82.30194081 -79.56658849 79.50490618 -77.0625 76.5 C-74.29941943 73.22681225 -71.32856088 70.69117688 -68 68 C-65.15993769 65.30194081 -62.56658849 62.50490618 -60.0625 59.5 C-58.13681861 57.21294395 -56.20805098 55.24379146 -53.875 53.375 C-50.97687894 51.14548816 -50.97687894 51.14548816 -49 48.5 C-46.63956803 45.54946004 -43.89848263 43.41540219 -41 41 C-40.34 40.175 -39.68 39.35 -39 38.5 C-36.63304851 35.54131064 -33.93165 33.39318368 -31 31 C-27.22588946 27.41943359 -23.87772769 23.56507912 -20.55078125 19.57421875 C-20.03902344 19.05472656 -19.52726563 18.53523437 -19 18 C-18.34 18 -17.68 18 -17 18 C-16.34 16.68 -15.68 15.36 -15 14 C-14.34 14 -13.68 14 -13 14 C-13 13.34 -13 12.68 -13 12 C-11.54230712 10.77421281 -10.08048611 9.5526866 -8.58984375 8.3671875 C-6.40866048 6.49147707 -4.77003124 4.25831572 -3 2 C-2.01 1.34 -1.02 0.68 0 0 Z " fill="#002D95" transform="translate(968,772)"/>
<path d="M0 0 C4.50107874 2.18234121 7.09148303 5.27605975 10.24609375 9.0234375 C12.09364396 11.20487432 12.09364396 11.20487432 15 13.5 C17.39086156 15.49238463 19.18007369 17.2830023 21.16625977 19.62890625 C25.03383093 24.09912945 29.146772 28.27409655 33.33984375 32.4375 C34.10680069 33.20304199 34.87375763 33.96858398 35.66395569 34.75732422 C38.08610881 37.17393197 40.51173612 39.58701726 42.9375 42 C44.59202893 43.64950686 46.24632802 45.29924429 47.90039062 46.94921875 C51.93094202 50.96881371 55.96434272 54.98553169 60 59 C59.01 59.495 59.01 59.495 58 60 C55.35265467 58.014491 53.12774074 56.1607061 51.0625 53.5625 C49.02300874 50.85449403 49.02300874 50.85449403 46.0625 48.5625 C42.93079853 45.94209673 40.56980469 43.16283654 38 40 C36.3540349 38.31288577 34.68762851 36.6454378 33 35 C24.33333333 26.33333333 15.66666667 17.66666667 7 9 C5.8553125 7.9171875 5.8553125 7.9171875 4.6875 6.8125 C3 5 3 5 3 3 C2.01 2.67 1.02 2.34 0 2 C0 1.34 0 0.68 0 0 Z " fill="#002C90" transform="translate(900,578)"/>
<path d="M0 0 C0.66 0 1.32 0 2 0 C1.41884626 3.51842786 0.20392497 5.16255218 -2.31640625 7.64453125 C-2.99896484 8.32193359 -3.68152344 8.99933594 -4.38476562 9.69726562 C-5.10341797 10.39529297 -5.82207031 11.09332031 -6.5625 11.8125 C-7.59987305 12.84213867 -7.59987305 12.84213867 -8.65820312 13.89257812 C-15.01541655 20.1549962 -21.41161241 26.25725776 -29 31 C-27.86229696 27.58689088 -26.38036546 26.57874969 -23.625 24.40625 C-21.94498085 22.95238728 -20.62811605 21.4265512 -19.25 19.6875 C-18.5075 18.800625 -17.765 17.91375 -17 17 C-16.34 17 -15.68 17 -15 17 C-14.7525 16.443125 -14.505 15.88625 -14.25 15.3125 C-11.44587026 10.12485999 -7.63356433 6.52553808 -3 3 C-2.34 3 -1.68 3 -1 3 C-0.67 2.01 -0.34 1.02 0 0 Z " fill="#0036B2" transform="translate(1114,334)"/>
<path d="M0 0 C0.66 0.33 1.32 0.66 2 1 C-1.58025805 6.11646807 -5.13837046 10.03132282 -10 14 C-11.8148051 16.07180365 -13.56755674 18.17826334 -15.2890625 20.328125 C-17.19156012 22.1871866 -18.40345679 22.61448703 -21 23 C-21.33 22.34 -21.66 21.68 -22 21 C-21.071875 20.87625 -21.071875 20.87625 -20.125 20.75 C-17.81562433 20.18741541 -17.81562433 20.18741541 -16.75 17.9375 C-16.5025 17.298125 -16.255 16.65875 -16 16 C-15.34 16 -14.68 16 -14 16 C-13.67 15.01 -13.34 14.02 -13 13 C-12.34 13 -11.68 13 -11 13 C-10.67 12.01 -10.34 11.02 -10 10 C-9.34 10 -8.68 10 -8 10 C-7.67 9.01 -7.34 8.02 -7 7 C-6.34 7 -5.68 7 -5 7 C-5 6.01 -5 5.02 -5 4 C-4.360625 3.71125 -3.72125 3.4225 -3.0625 3.125 C-0.84793921 2.17176549 -0.84793921 2.17176549 0 0 Z " fill="#0036B3" transform="translate(1083,365)"/>
<path d="M0 0 C1.32 0.33 2.64 0.66 4 1 C4.33 2.98 4.66 4.96 5 7 C2.525 8.485 2.525 8.485 0 10 C0.37125 9.46375 0.7425 8.9275 1.125 8.375 C2.34857383 5.05387103 1.30463011 3.18909583 0 0 Z " fill="#0032A6" transform="translate(1027,705)"/>
</svg>
