<?xml version="1.0" encoding="UTF-8"?>
<svg version="1.1" xmlns="http://www.w3.org/2000/svg" width="1920" height="1080">
<path d="M0 0 C0 136.29 0 272.58 0 413 C-78.87 413 -157.74 413 -239 413 C-237.96740315 408.86961258 -237.78823683 408.45942932 -234.6875 406.0625 C-231.6694728 403.61611543 -229.37637234 401.08928404 -227 398 C-224.42801937 395.29265197 -221.8321726 392.86299804 -218.9375 390.5 C-215.94446128 388.11294894 -215.94446128 388.11294894 -213.75 385.1875 C-213.1725 384.465625 -212.595 383.74375 -212 383 C-211.34 383 -210.68 383 -210 383 C-210 382.34 -210 381.68 -210 381 C-209.34 381 -208.68 381 -208 381 C-207.7525 380.38125 -207.505 379.7625 -207.25 379.125 C-205.79371361 376.64931313 -204.62187494 376.04874998 -202 375 C-202 374.34 -202 373.68 -202 373 C-201.34 373 -200.68 373 -200 373 C-199.6596875 372.1646875 -199.6596875 372.1646875 -199.3125 371.3125 C-197.63281165 368.3530491 -195.45866715 366.33873216 -193 364 C-192.443125 363.401875 -191.88625 362.80375 -191.3125 362.1875 C-190 361 -190 361 -188 361 C-187.66935547 360.17822266 -187.66935547 360.17822266 -187.33203125 359.33984375 C-185.58129871 356.26451006 -183.21052934 353.99841279 -180.6875 351.5625 C-179.9769043 350.86543945 -179.9769043 350.86543945 -179.25195312 350.15429688 C-177.83733614 348.76677242 -176.41868488 347.38336493 -175 346 C-173.65808594 344.63101563 -173.65808594 344.63101563 -172.2890625 343.234375 C-170.22488657 341.21951385 -168.64392576 340.07715494 -166 339 C-166 338.34 -166 337.68 -166 337 C-161.69767442 332.23255814 -161.69767442 332.23255814 -158 331 C-158 330.34 -158 329.68 -158 329 C-155.62686856 326.4234573 -153.19932171 324.15556817 -150.4375 322 C-147.87438268 320.03976682 -147.87438268 320.03976682 -145.8125 317.25 C-145.214375 316.5075 -144.61625 315.765 -144 315 C-143.34 315 -142.68 315 -142 315 C-142 314.34 -142 313.68 -142 313 C-141.34 313 -140.68 313 -140 313 C-138.79371992 310.66785852 -137.8345262 308.50357861 -137 306 C-137.99 305.67 -138.98 305.34 -140 305 C-143.47384659 301.80781665 -146.48570526 298.28470452 -149.53125 294.6953125 C-152.46636558 291.30743973 -155.59184834 288.33318503 -159.0625 285.5 C-161.81245111 283.15961608 -163.7982897 280.84091652 -166 278 C-168.55393489 275.31164749 -171.15013508 272.87488743 -174 270.5 C-176.84375976 268.1302002 -179.41845203 265.64948344 -182 263 C-183.1446875 261.9171875 -183.1446875 261.9171875 -184.3125 260.8125 C-186 259 -186 259 -186 257 C-186.66 257 -187.32 257 -188 257 C-188 256.34 -188 255.68 -188 255 C-188.86625 254.6596875 -188.86625 254.6596875 -189.75 254.3125 C-192.59591381 252.65238361 -193.99841921 250.60812043 -196 248 C-198.71490898 245.13833918 -201.53960555 242.52553788 -204.5625 240 C-207.44227883 237.56804854 -209.69657391 234.99445392 -212 232 C-215.13837762 228.70067993 -218.39522442 225.78082688 -222 223 C-221.71611066 219.59332791 -221.35148596 218.31243196 -218.75 216 C-217.38875 215.01 -217.38875 215.01 -216 214 C-213.15465979 211.30057467 -210.53408686 208.4877597 -208 205.5 C-204.47723058 201.34976529 -200.74951242 197.60499497 -196.5625 194.125 C-193.39570423 191.46986992 -190.82001196 188.5584809 -188.26171875 185.3203125 C-187.84535156 184.88460937 -187.42898437 184.44890625 -187 184 C-186.34 184 -185.68 184 -185 184 C-184.773125 183.4225 -184.54625 182.845 -184.3125 182.25 C-182.65238361 179.40408619 -180.60812043 178.00158079 -178 176 C-175.29265197 173.42801937 -172.86299804 170.8321726 -170.5 167.9375 C-168.15961608 165.18754889 -165.84091652 163.2017103 -163 161 C-159.22377905 157.42252752 -155.87714475 153.56437985 -152.55078125 149.57421875 C-152.03902344 149.05472656 -151.52726562 148.53523437 -151 148 C-150.34 148 -149.68 148 -149 148 C-148.79375 147.443125 -148.5875 146.88625 -148.375 146.3125 C-146.8570529 143.75958897 -145.03966431 142.31993959 -142.72265625 140.50390625 C-140.00768025 138.13368911 -137.79764537 135.35478861 -135.515625 132.57421875 C-135.01546875 132.05472656 -134.5153125 131.53523437 -134 131 C-133.34 131 -132.68 131 -132 131 C-131.7525 130.38125 -131.505 129.7625 -131.25 129.125 C-129.76259631 126.59641373 -128.56321991 126.28160996 -126 125 C-125.73832031 124.43152344 -125.47664063 123.86304688 -125.20703125 123.27734375 C-123.56380212 120.17701177 -121.18487939 117.9736485 -118.6875 115.5625 C-118.21376953 115.09779297 -117.74003906 114.63308594 -117.25195312 114.15429688 C-115.83733614 112.76677242 -114.41868488 111.38336493 -113 110 C-111.65421875 108.62328125 -111.65421875 108.62328125 -110.28125 107.21875 C-108 105 -108 105 -105.8125 103.9375 C-103.86496671 103.16827485 -103.86496671 103.16827485 -103.2401886 101.30906677 C-101.4909985 98.05230667 -98.95103475 95.68965686 -96.34448242 93.11743164 C-95.7670076 92.53966476 -95.18953278 91.96189789 -94.59455872 91.36662292 C-92.68623159 89.45968779 -90.77091658 87.55993656 -88.85546875 85.66015625 C-87.52465383 84.3330743 -86.1942819 83.00554799 -84.86433411 81.67759705 C-81.36075221 78.18164892 -77.85121176 74.69174245 -74.34039307 71.20306396 C-70.77999235 67.66305281 -67.22517528 64.11744491 -63.66992188 60.57226562 C-57.9195778 54.83949168 -52.16585888 49.11013176 -46.40756226 43.38534546 C-43.26647678 40.2621023 -40.13082885 37.13353349 -37 34 C-12 9 -12 9 -9.27148438 6.28320312 C-7.77628059 4.78028548 -6.30944494 3.24851361 -4.875 1.6875 C-3 0 -3 0 0 0 Z " fill="#FFFFFF" transform="translate(394,315)"/>
<path d="M0 0 C25.41 0 50.82 0 77 0 C79.94298575 10.59474871 82.85978086 21.13356906 85.453125 31.80859375 C85.75497208 33.04420044 86.05681915 34.27980713 86.36781311 35.55285645 C87.1692292 38.83827737 87.96570283 42.12487449 88.7602272 45.41196823 C89.25473521 47.45708322 89.75051809 49.50188628 90.24642944 51.54666138 C94.96945079 71.04206548 99.41722979 90.57690069 103.38574219 110.24194336 C103.55222763 111.06561401 103.71871307 111.88928467 103.89024353 112.73791504 C104.19153978 114.23595054 104.48984958 115.73459204 104.78419495 117.23400879 C105.6494204 121.57058271 106.735844 125.7674668 108 130 C108.13177643 129.424207 108.26355286 128.848414 108.39932251 128.25517273 C114.59503782 101.2274847 120.97875235 74.28969926 128.375 47.5625 C128.656922 46.54264008 128.93884399 45.52278015 129.22930908 44.47201538 C133.35003304 29.60794313 137.68090039 14.80834151 142 0 C166.75 0 191.5 0 217 0 C218.01049609 4.04198435 218.30321411 7.84184241 218.49989319 11.9752655 C218.56242811 13.18980729 218.56242811 13.18980729 218.62622637 14.42888528 C218.7651101 17.14536483 218.89828873 19.86209395 219.03149414 22.57885742 C219.12982672 24.52542796 219.22850355 26.47198114 219.32749939 28.41851807 C219.59556046 33.70985973 219.85862282 39.00143931 220.12068486 44.29308105 C220.39569584 49.83169175 220.67486408 55.37009304 220.95347595 60.90852356 C221.42102181 70.21532894 221.88544226 79.5222862 222.34790039 88.8293457 C222.88212157 99.58011185 223.42069815 110.33065274 223.96175677 121.0810768 C224.482376 131.42648979 225.00042032 141.77203002 225.51711845 152.11763954 C225.73687064 156.51736463 225.95742354 160.91704848 226.17860603 165.31670189 C226.43927096 170.50480357 226.69764552 175.69301453 226.95427895 180.88131714 C227.04864259 182.78200913 227.14376117 184.68266382 227.23970413 186.58327675 C227.37092326 189.18535774 227.49934851 191.78756259 227.62709045 194.38981628 C227.6844315 195.50784827 227.6844315 195.50784827 227.74293095 196.64846677 C227.9909288 201.7845672 228 206.84260094 228 212 C209.52 212 191.04 212 172 212 C171.50999856 199.50034058 171.02678581 187.00061623 170.5625 174.5 C170.52772427 173.56394424 170.49294853 172.62788849 170.45711899 171.66346741 C169.41047403 143.36149405 168.6490841 115.06949004 168.3125 86.75 C168.29841536 85.56641403 168.29841536 85.56641403 168.28404617 84.35891724 C168.17301047 74.90608689 168.07750572 65.45316992 168 56 C167.7960965 56.84834412 167.59219299 57.69668823 167.3821106 58.57073975 C161.15421276 84.32639341 154.08127934 109.79973817 146.73742676 135.25714111 C145.29282291 140.27031517 143.85586733 145.28568076 142.41796875 150.30078125 C136.99204145 169.21421044 131.53030517 188.11681308 126 207 C111.15 207 96.3 207 81 207 C79.15073081 201.45219243 77.46641403 196.22922833 76.08984375 190.59912109 C75.8374163 189.57231153 75.8374163 189.57231153 75.5798893 188.52475834 C75.02830999 186.27530087 74.48257446 184.02447938 73.9375 181.7734375 C73.54543747 180.16364164 73.15329486 178.55386529 72.76107788 176.94410706 C71.71557348 172.64433437 70.67716227 168.34288169 69.64165497 164.04069138 C69.21387675 162.26352955 68.78561844 160.48648322 68.35688019 158.70955276 C60.30777878 125.34846272 52.62263831 91.8707163 47 58 C46.9699994 58.75722162 46.9399988 59.51444324 46.90908909 60.29461098 C46.17870398 78.7230947 45.44413154 97.15140716 44.7049036 115.57953835 C44.34751898 124.4912588 43.99154954 133.40303158 43.63891602 142.31494141 C43.33154208 150.08293983 43.02150841 157.85082677 42.70828623 165.61859167 C42.54254525 169.73119446 42.3781327 173.84384064 42.21690559 177.95662308 C42.06505283 181.82919889 41.90963898 185.70161556 41.75151634 189.57394028 C41.69416871 190.99364255 41.63811199 192.41339766 41.58345795 193.83320618 C41.50849387 195.77554959 41.42838437 197.71769236 41.34803772 199.65982056 C41.30471345 200.74569269 41.26138918 201.83156483 41.21675205 202.95034218 C41.00096804 205.98637994 40.50038061 208.99771632 40 212 C22.51 212 5.02 212 -13 212 C-11.96049049 194.47903638 -10.91967546 176.95815568 -9.875 159.4375 C-9.79699535 158.12918339 -9.71899071 156.82086678 -9.63862228 155.47290421 C-7.34624483 117.04021344 -5.00171923 78.61120097 -2.5625 40.1875 C-2.49674522 39.15166149 -2.43099045 38.11582298 -2.3632431 37.04859543 C-1.57897477 24.69883931 -0.79010598 12.34938548 0 0 Z " fill="#FFFFFF" transform="translate(496,408)"/>
<path d="M0 0 C2.76992803 2.39408277 4.94154687 4.86438489 7.1015625 7.81640625 C8.30711655 5.40529816 8.38317228 3.49948611 8.6015625 0.81640625 C8.99045139 -3.96137153 8.99045139 -3.96137153 10.1015625 -6.18359375 C26.2715625 -6.18359375 42.4415625 -6.18359375 59.1015625 -6.18359375 C59.03845991 12.52440736 58.96308408 31.23223145 58.86584759 49.9400835 C58.82107333 58.6284189 58.7816175 67.31671498 58.75512695 76.00512695 C58.73199682 83.58679807 58.69843472 91.16834282 58.65286094 98.74991339 C58.62912887 102.75627079 58.61027022 106.76250461 58.60394859 110.76893044 C58.49860662 169.67523589 58.49860662 169.67523589 37.4140625 192.12890625 C24.10071198 204.59375795 7.05631647 210.81565943 -10.8984375 212.81640625 C-11.73761719 212.92597656 -12.57679687 213.03554688 -13.44140625 213.1484375 C-32.10406059 215.26598527 -51.23760241 213.90152166 -69.4609375 209.50390625 C-70.25741699 209.31546143 -71.05389648 209.1270166 -71.87451172 208.93286133 C-77.9829833 207.35444655 -83.3543352 204.80180432 -88.8984375 201.81640625 C-87.54582155 195.84934006 -86.17630992 189.88650986 -84.79077148 183.92700195 C-84.32154651 181.89781115 -83.85701245 179.86752981 -83.3972168 177.83618164 C-82.73666904 174.92166578 -82.05951944 172.01144875 -81.37890625 169.1015625 C-81.17565231 168.18802505 -80.97239838 167.27448761 -80.76298523 166.33326721 C-80.5630043 165.49247116 -80.36302338 164.65167511 -80.15698242 163.78540039 C-79.98599533 163.04149551 -79.81500824 162.29759064 -79.63883972 161.53114319 C-79.27234062 160.6823484 -79.27234062 160.6823484 -78.8984375 159.81640625 C-74.88121122 158.47733082 -72.63965172 159.95051813 -68.9609375 161.56640625 C-52.46113543 168.49528389 -34.02136987 172.0961631 -16.7109375 166.0078125 C-9.56070275 162.97889361 -5.11715831 158.96125904 -1.8984375 151.81640625 C0.49501021 144.76102224 1.47279211 138.24099836 1.1015625 130.81640625 C0.3796875 131.55890625 -0.3421875 132.30140625 -1.0859375 133.06640625 C-10.95583259 142.71697034 -22.42423672 146.72856337 -36.0859375 147.12890625 C-53.34513551 146.76427531 -69.47632413 141.09138799 -81.8984375 128.81640625 C-98.48427658 110.04609081 -102.82227473 87.11385931 -101.8984375 62.81640625 C-100.55085971 42.18300199 -92.49136508 23.45888536 -77.8984375 8.81640625 C-77.21136719 8.10613281 -76.52429687 7.39585937 -75.81640625 6.6640625 C-56.5472513 -11.96159562 -21.81791513 -16.4522715 0 0 Z M-36.5859375 42.84375 C-44.36994905 54.54293403 -45.42755481 68.93524717 -42.7734375 82.44140625 C-40.57708912 91.12368483 -36.28786487 97.73617493 -28.8984375 102.81640625 C-23.18551113 105.36899037 -17.79995562 105.59423184 -11.8359375 103.75390625 C-6.65286025 101.64041844 -3.60411999 97.67735597 -0.796875 92.96875 C1.9761742 86.32548865 1.32196484 78.74023144 1.34179688 71.66845703 C1.35147216 69.58585185 1.38253378 67.5042481 1.4140625 65.421875 C1.49578804 55.26263891 1.05793604 45.85935217 -6.30859375 38.22265625 C-10.97250982 34.09732509 -15.31646478 33.25433066 -21.375 33.47265625 C-27.94315241 34.36738909 -32.56017852 37.69121608 -36.5859375 42.84375 Z " fill="#FFFFFF" transform="translate(1672.8984375,471.18359375)"/>
<path d="M0 0 C44.88 0 89.76 0 136 0 C136 15.51 136 31.02 136 47 C109.93 47 83.86 47 57 47 C57 59.54 57 72.08 57 85 C81.42 85 105.84 85 131 85 C131 100.51 131 116.02 131 132 C106.58 132 82.16 132 57 132 C57 158.4 57 184.8 57 212 C38.19 212 19.38 212 0 212 C0 142.04 0 72.08 0 0 Z " fill="#FFFFFF" transform="translate(1111,408)"/>
<path d="M0 0 C2.21731361 1.65241742 4.27017396 3.38306206 6.31640625 5.2421875 C7.06148437 5.89574219 7.8065625 6.54929687 8.57421875 7.22265625 C21.61556877 19.35774297 29.3340672 36.7662398 30.53759766 54.50170898 C31.0074374 68.82582324 31.24017734 82.64549936 26.31640625 96.2421875 C25.94257812 97.32113281 25.56875 98.40007812 25.18359375 99.51171875 C22.52558385 106.5087978 18.9493499 112.38509207 14.31640625 118.2421875 C13.6821875 119.06460938 13.04796875 119.88703125 12.39453125 120.734375 C-1.27724117 137.23301766 -21.76318884 145.25769652 -42.68359375 147.2421875 C-67.62688458 149.13408356 -91.45244836 143.66262702 -110.68359375 127.2421875 C-111.33585937 126.70207031 -111.988125 126.16195312 -112.66015625 125.60546875 C-127.25151172 112.37997076 -134.01745669 91.77875445 -134.96875 72.59765625 C-135.62267401 49.77570814 -130.15413432 27.98841593 -114.87109375 10.4296875 C-86.00061031 -19.83005229 -34.11956936 -22.3490629 0 0 Z M-66.30859375 32.625 C-75.34167614 43.24913667 -76.62685876 58.84410497 -75.85205078 72.2265625 C-74.87563267 83.90961746 -72.42182783 94.17583135 -63.55859375 102.2421875 C-58.98916581 106.08264055 -55.15229675 106.60981768 -49.3125 106.5078125 C-44.10702838 105.98185103 -40.43467874 104.22754463 -36.9609375 100.2890625 C-29.70045631 90.08514299 -28.49096077 79.37734968 -28.43359375 67.1796875 C-28.41296875 66.11041016 -28.39234375 65.04113281 -28.37109375 63.93945312 C-28.31205598 51.72601535 -30.56885279 39.64697785 -39.3125 30.546875 C-47.72478723 23.71555126 -58.60463772 25.54908387 -66.30859375 32.625 Z " fill="#FFFFFF" transform="translate(1398.68359375,475.7578125)"/>
<path d="M0 0 C13.46203234 13.06479204 18.56578904 30.66204127 18.84960938 48.99926758 C18.87513548 51.31498689 18.89047394 53.63038917 18.89802551 55.94623756 C18.90647473 58.46142923 18.92712748 60.97628448 18.95056152 63.49137878 C18.99837166 68.84836744 19.03146635 74.20539144 19.0625 79.5625 C19.09860747 85.74600882 19.14129069 91.9293542 19.19844055 98.11270714 C19.21794537 100.54422419 19.22671398 102.97560347 19.23474121 105.40718079 C19.34461811 118.03093965 20.45850845 130.05409722 21.5625 142.75 C4.4025 142.75 -12.7575 142.75 -30.4375 142.75 C-31.4275 138.79 -32.4175 134.83 -33.4375 130.75 C-34.51 131.61625 -35.5825 132.4825 -36.6875 133.375 C-51.75183601 144.55432304 -69.40562715 147.86965305 -87.76171875 145.28125 C-101.77240963 142.20439239 -112.37950505 135.32272803 -120.60546875 123.66796875 C-128.2461192 111.49831867 -129.27116972 96.90329121 -126.75390625 82.96484375 C-122.70926034 68.88410551 -114.36797229 57.83360788 -101.9375 50 C-82.64872836 39.51482157 -60.10992163 36.36603977 -38.4375 36.75 C-39.86230439 32.39177481 -40.82572623 29.72114575 -44.875 27.375 C-58.47938371 21.16949164 -76.6693443 24.16419743 -90.4375 28.75 C-93.65536146 29.9704458 -96.79745236 31.25752087 -99.921875 32.69921875 C-102.43703742 33.74980678 -104.76642096 34.25480934 -107.4375 34.75 C-108.72766923 30.28663974 -110.00913403 25.82090517 -111.28271484 21.3527832 C-111.71687289 19.83420131 -112.1533715 18.31628649 -112.59228516 16.79907227 C-113.22399561 14.61386978 -113.84715584 12.42637982 -114.46875 10.23828125 C-114.66561401 9.56412674 -114.86247803 8.88997223 -115.06530762 8.19538879 C-116.07042955 4.62372858 -116.66233217 1.46285345 -116.4375 -2.25 C-107.43274856 -6.8204462 -98.19623815 -9.79893785 -88.4375 -12.25 C-87.78023926 -12.41806152 -87.12297852 -12.58612305 -86.44580078 -12.75927734 C-58.98156808 -19.42334185 -22.47503957 -18.89255206 0 0 Z M-66.34765625 79.49609375 C-70.40740394 84.11249715 -71.8101687 87.20102346 -71.7109375 93.36328125 C-71.24335676 97.44459313 -69.98368421 99.48566126 -67.4375 102.75 C-62.64119195 105.60933749 -57.9623145 106.6796055 -52.4375 105.75 C-46.35450169 103.82543556 -41.80045273 100.16928051 -38.4375 94.75 C-36.25972087 89.71756445 -36.19409907 85.24858072 -36.3125 79.875 C-36.32152344 79.09125 -36.33054687 78.3075 -36.33984375 77.5 C-36.36321937 75.58319945 -36.39908347 73.66655809 -36.4375 71.75 C-46.23289876 71.75 -58.76525138 72.56493837 -66.34765625 79.49609375 Z " fill="#FFFFFF" transform="translate(874.4375,477.25)"/>
<path d="M0 0 C3.88376197 1.94188098 6.38315805 4.09167828 9.38508606 7.10420227 C10.18143834 7.89164118 10.18143834 7.89164118 10.99387854 8.69498795 C12.77129929 10.45506705 14.5415044 12.22222616 16.31176758 13.98950195 C17.58451543 15.25299157 18.85765757 16.51608413 20.13116455 17.77880859 C23.5883379 21.20975755 27.03883337 24.64734542 30.48736024 28.08698297 C32.64064798 30.23440855 34.79510406 32.38065512 36.94992638 34.52654076 C43.68797804 41.23725565 50.42202048 47.95195542 57.15027887 54.67248946 C64.92465187 62.43788838 72.71194284 70.19001859 80.51070863 77.93091804 C86.53488152 83.91193219 92.54754776 89.904354 98.55151862 95.90564698 C102.13976369 99.49179161 105.73274767 103.07286733 109.33771706 106.64220619 C112.72519503 109.99684924 116.09821531 113.36536959 119.460495 116.74526215 C120.69894825 117.9852627 121.94257931 119.22011589 123.19161034 120.44946098 C124.89185137 122.12445722 126.57270267 123.81675669 128.24983215 125.5148468 C128.75194885 126.00085069 129.25406554 126.48685457 129.77139789 126.98758584 C131.93351168 129.21374993 132.99400609 130.41809475 133.02659798 133.58220482 C131.83007578 136.40019751 130.49138634 138.00651305 128.32460022 140.1698761 C127.53518539 140.9676799 126.74577057 141.7654837 125.93243408 142.58746338 C125.06020203 143.44845642 124.18796997 144.30944946 123.28930664 145.1965332 C122.37553757 146.11409897 121.46176849 147.03166473 120.52030945 147.97703552 C118.01701126 150.49001846 115.50140799 152.99033984 112.98313451 155.48830438 C110.35095445 158.10291169 107.72932965 160.72806329 105.10630798 163.35185242 C100.70209243 167.75419576 96.29020358 172.14872783 91.87329102 176.53833008 C86.76162421 181.61850794 81.66052438 186.7091019 76.56531245 191.80577976 C71.66704595 196.7052653 66.76309731 201.59901942 61.85592461 206.48958397 C59.76547945 208.57295559 57.67675275 210.65802823 55.5893116 212.74440956 C52.67887861 215.65246748 49.7600257 218.55192537 46.84008789 221.45043945 C45.53477615 222.75711075 45.53477615 222.75711075 44.20309448 224.09017944 C43.41085983 224.87388412 42.61862518 225.65758881 41.80238342 226.46504211 C40.76731454 227.49508346 40.76731454 227.49508346 39.71133518 228.54593372 C38 230 38 230 36 230 C35.73115494 230.59448944 35.46230988 231.18897888 35.18531799 231.80148315 C33.99566578 234.00803906 32.81174391 235.42465345 31.03491211 237.17626953 C30.4376683 237.77013458 29.8404245 238.36399963 29.2250824 238.9758606 C28.26095177 239.91980179 28.26095177 239.91980179 27.27734375 240.8828125 C26.28632408 241.86602982 26.28632408 241.86602982 25.27528381 242.86911011 C23.16738574 244.95921627 21.05291634 247.04250562 18.9375 249.125 C16.8194003 251.2154984 14.70276818 253.30743041 12.58900452 255.40231323 C11.27405934 256.70498383 9.95645058 258.00497219 8.63597107 259.30203247 C8.04187943 259.8895932 7.44778778 260.47715393 6.83569336 261.08251953 C6.3109996 261.59896027 5.78630585 262.115401 5.24571228 262.64749146 C3.8845757 264.00001564 3.8845757 264.00001564 3 266 C2.01 266 1.02 266 0 266 C0 178.22 0 90.44 0 0 Z " fill="#FFFFFF" transform="translate(38,403)"/>
<path d="M0 0 C14.32703226 12.14583344 23.03260724 30.79316425 24.8125 49.375 C25.3856458 61.6127836 25.82700779 74.28795328 23.8125 86.375 C-7.5375 86.375 -38.8875 86.375 -71.1875 86.375 C-66.74687617 95.25624767 -62.22681331 98.41662953 -52.93359375 101.61328125 C-35.03057179 106.57926885 -13.89191451 104.16185413 3.89086914 99.7421875 C5.8125 99.375 5.8125 99.375 9.8125 99.375 C11.76171125 107.33427928 13.46723866 115.33814021 15.0625 123.375 C15.24973633 124.2827417 15.43697266 125.1904834 15.62988281 126.12573242 C17.18935451 134.1385246 17.18935451 134.1385246 15.8125 138.375 C-17.20757965 149.75658059 -56.37541612 152.78687499 -88.625 137.5 C-93.97416901 134.66255175 -98.63848726 131.36072035 -103.1875 127.375 C-103.86425781 126.80394531 -104.54101562 126.23289062 -105.23828125 125.64453125 C-119.3879646 112.75870311 -125.56281299 92.3310615 -126.4765625 73.6875 C-127.10139436 51.20728551 -121.3186835 27.90352195 -105.75 11 C-103.92386181 9.0935718 -102.06297286 7.23402135 -100.1875 5.375 C-99.55328125 4.70726562 -98.9190625 4.03953125 -98.265625 3.3515625 C-73.44586427 -20.91908848 -26.58074771 -19.68036928 0 0 Z M-65.1875 30.375 C-69.63440366 36.07948283 -70.51128522 39.8320335 -72.1875 47.375 C-57.3375 47.375 -42.4875 47.375 -27.1875 47.375 C-28.97602215 38.43238927 -30.36604017 33.19645983 -36.5625 27 C-45.85034545 21.25038139 -57.50808498 22.4822679 -65.1875 30.375 Z " fill="#FFFFFF" transform="translate(1883.1875,475.625)"/>
<path d="M0 0 C18.81 0 37.62 0 57 0 C57 73.59 57 147.18 57 223 C38.19 223 19.38 223 0 223 C0 149.41 0 75.82 0 0 Z " fill="#FFFFFF" transform="translate(1018,397)"/>
<path d="M0 0 C0 17.82 0 35.64 0 54 C-7.59 54 -15.18 54 -23 54 C-32.69081112 56.90724334 -37.72694057 58.72087189 -42.9375 67.125 C-44.91223371 72.46839709 -45.16238903 77.53141232 -45.20532227 83.18676758 C-45.21522186 83.99704407 -45.22512146 84.80732056 -45.23532104 85.64215088 C-45.26680619 88.30958169 -45.29164193 90.97703029 -45.31640625 93.64453125 C-45.336987 95.49827018 -45.35798377 97.35200454 -45.37937927 99.20573425 C-45.43448417 104.07677497 -45.48394439 108.94785724 -45.53222656 113.81896973 C-45.5913752 119.66776813 -45.65753927 125.51649087 -45.72252655 131.36522675 C-45.82039029 140.24343816 -45.90934605 149.12169885 -46 158 C-64.81 158 -83.62 158 -103 158 C-103.33 106.85 -103.66 55.7 -104 3 C-87.83 3 -71.66 3 -55 3 C-53.875 16.5 -53.875 16.5 -53.9375 22.75 C-53.94652344 23.94109375 -53.95554687 25.1321875 -53.96484375 26.359375 C-53.97644531 27.23078125 -53.98804688 28.1021875 -54 29 C-53.34 29 -52.68 29 -52 29 C-51.79375 28.195625 -51.5875 27.39125 -51.375 26.5625 C-47.24985846 15.87463328 -39.54428651 7.88185799 -29.1875 3.0625 C-18.86261126 -1.33265466 -13.13535686 0 0 0 Z " fill="#FFFFFF" transform="translate(1558,462)"/>
<path d="M0 0 C18.81 0 37.62 0 57 0 C57 51.15 57 102.3 57 155 C38.19 155 19.38 155 0 155 C0 103.85 0 52.7 0 0 Z " fill="#FFFFFF" transform="translate(927,465)"/>
<path d="M0 0 C5.95247947 5.8461852 8.46838172 13.00293179 8.5625 21.23828125 C8.09965386 29.61579647 5.95108715 35.48888734 -0.15625 41.31640625 C-8.92666385 48.3391508 -18.68313217 48.30242436 -29.46875 47.50390625 C-36.0875337 46.36838076 -41.0469318 42.43555715 -45.46875 37.50390625 C-50.85146208 29.32900924 -51.2241819 20.99869516 -49.46875 11.50390625 C-46.56343895 3.88136972 -41.73919785 -0.93556621 -34.46875 -4.49609375 C-23.50639464 -8.97673899 -9.3273696 -7.36950192 0 0 Z " fill="#FFFFFF" transform="translate(976.46875,402.49609375)"/>
</svg>
