<?xml version="1.0" encoding="UTF-8"?>
<svg version="1.1" xmlns="http://www.w3.org/2000/svg" width="1920" height="1080">
<path d="M0 0 C0 136.29 0 272.58 0 413 C-78.87 413 -157.74 413 -239 413 C-237.83892055 408.3556822 -236.68525288 407.76393966 -233 405 C-232.67 404.34 -232.34 403.68 -232 403 C-231.34 403 -230.68 403 -230 403 C-230 402.34 -230 401.68 -230 401 C-228.390625 399.44921875 -228.390625 399.44921875 -226.25 397.6875 C-223.08238651 395.01237765 -220.56907035 392.26074314 -218 389 C-217.34 389 -216.68 389 -216 389 C-216 388.34 -216 387.68 -216 387 C-215.34 387 -214.68 387 -214 387 C-213.67 386.01 -213.34 385.02 -213 384 C-211.0625 381.8125 -211.0625 381.8125 -209 380 C-208.34 380 -207.68 380 -207 380 C-207 379.34 -207 378.68 -207 378 C-205.53529287 376.76831446 -204.06639122 375.54103997 -202.5703125 374.34765625 C-200.83099856 372.94225147 -200.83099856 372.94225147 -199.125 370.625 C-196.61147895 367.52006223 -193.76357658 365.10829877 -190.70703125 362.55078125 C-188.89605411 361.09320225 -188.89605411 361.09320225 -188 359 C-187.34 359 -186.68 359 -186 359 C-185.731875 358.360625 -185.46375 357.72125 -185.1875 357.0625 C-184 355 -184 355 -181 354 C-180.5978125 353.13375 -180.5978125 353.13375 -180.1875 352.25 C-178.7846796 349.59202451 -176.90970195 348.13709863 -174.58203125 346.28515625 C-170.50345515 342.97194258 -167.25378312 339.09346909 -164 335 C-161.875 332.6875 -161.875 332.6875 -160 331 C-159.34 331 -158.68 331 -158 331 C-158 330.34 -158 329.68 -158 329 C-156.4609375 327.51953125 -156.4609375 327.51953125 -154.375 325.8125 C-151.64285119 323.49809626 -149.20770582 321.20604369 -146.9375 318.4375 C-143.98268349 314.83962425 -140.61413466 311.91910876 -137 309 C-137.70768358 306.04199472 -137.70768358 306.04199472 -139 303 C-139.55953369 302.72776611 -140.11906738 302.45553223 -140.69555664 302.17504883 C-144.08517947 300.44666079 -146.48375316 297.76067719 -149.12109375 295.07421875 C-149.7028688 294.4896138 -150.28464386 293.90500885 -150.88404846 293.3026886 C-152.73995842 291.43561298 -154.58880352 289.56171566 -156.4375 287.6875 C-157.67727058 286.4376908 -158.91750025 285.18833682 -160.15820312 283.93945312 C-162.44744394 281.6339166 -164.73395135 279.32574236 -167.01733398 277.0144043 C-169.66790419 274.33255423 -172.33116581 271.66368808 -175 269 C-190.33333333 253.66666667 -205.66666667 238.33333333 -221 223 C-220.83937722 218.24556558 -218.59474578 216.16662322 -215.25 213 C-214.38890625 212.175 -213.5278125 211.35 -212.640625 210.5 C-211.76921875 209.675 -210.8978125 208.85 -210 208 C-208.32940408 206.33727188 -206.66278319 204.67054112 -205 203 C-204.11441406 202.12601563 -203.22882813 201.25203125 -202.31640625 200.3515625 C-196.35761012 194.49412594 -196.35761012 194.49412594 -190.8125 188.25 C-188.11803031 184.98539615 -185.02509016 182.35149165 -181.8046875 179.6171875 C-179.85491383 177.95927565 -179.85491383 177.95927565 -178 175.5 C-175.60172275 172.50215344 -172.86345141 170.18525843 -169.953125 167.6953125 C-167.51254677 165.5768906 -165.25392284 163.31483967 -163 161 C-162.21625 160.236875 -161.4325 159.47375 -160.625 158.6875 C-158.50136456 156.51330181 -156.53314401 154.30846869 -154.5625 152 C-151.602125 148.57726709 -148.52113478 145.83221711 -145 143 C-143.31066078 141.3563186 -141.64740076 139.6857124 -140 138 C-138.50137049 136.49863076 -137.00124018 134.99875879 -135.5 133.5 C-134.72140625 132.72140625 -133.9428125 131.9428125 -133.140625 131.140625 C-130.76041667 128.76041667 -128.38020833 126.38020833 -126 124 C-125.2471875 123.24589844 -124.494375 122.49179687 -123.71875 121.71484375 C-121.86433251 119.86309065 -120.00594581 118.01644188 -118.140625 116.17578125 C-117.17707098 115.22136663 -116.21352938 114.26693948 -115.25 113.3125 C-114.75628906 112.82716797 -114.26257813 112.34183594 -113.75390625 111.84179688 C-111.03384724 109.18159783 -111.03384724 109.18159783 -109 106 C-108.34 106 -107.68 106 -107 106 C-107 105.34 -107 104.68 -107 104 C-105.390625 102.44921875 -105.390625 102.44921875 -103.25 100.6875 C-100.08238651 98.01237765 -97.56907035 95.26074314 -95 92 C-94.34 92 -93.68 92 -93 92 C-93 91.34 -93 90.68 -93 90 C-91.58676881 88.82230734 -90.16904337 87.64949167 -88.7265625 86.5078125 C-86.27522932 84.36705547 -84.31497697 81.89979623 -82.296875 79.35546875 C-81.86890625 78.90816406 -81.4409375 78.46085937 -81 78 C-80.34 78 -79.68 78 -79 78 C-78.6596875 77.1646875 -78.6596875 77.1646875 -78.3125 76.3125 C-76.62449964 73.33840412 -74.53323483 71.27991135 -72 69 C-71.34 69 -70.68 69 -70 69 C-69.67 68.01 -69.34 67.02 -69 66 C-68.34 66 -67.68 66 -67 66 C-66.5978125 65.1028125 -66.5978125 65.1028125 -66.1875 64.1875 C-65.00082594 62.00152146 -63.90400887 60.58667406 -62 59 C-61.34 59 -60.68 59 -60 59 C-60 58.34 -60 57.68 -60 57 C-59.34 57 -58.68 57 -58 57 C-57.67 56.01 -57.34 55.02 -57 54 C-55.0625 51.8125 -55.0625 51.8125 -53 50 C-52.34 50 -51.68 50 -51 50 C-51 49.34 -51 48.68 -51 48 C-50.34 48 -49.68 48 -49 48 C-48.67 47.01 -48.34 46.02 -48 45 C-47.34 45 -46.68 45 -46 45 C-45.773125 44.443125 -45.54625 43.88625 -45.3125 43.3125 C-43.62449964 40.33840412 -41.53323483 38.27991135 -39 36 C-38.34 36 -37.68 36 -37 36 C-36.67 35.01 -36.34 34.02 -36 33 C-34.0625 30.8125 -34.0625 30.8125 -32 29 C-31.34 29 -30.68 29 -30 29 C-30 28.34 -30 27.68 -30 27 C-28.625 25.375 -28.625 25.375 -27 24 C-26.34 24 -25.68 24 -25 24 C-24.34 22.68 -23.68 21.36 -23 20 C-22.34 20 -21.68 20 -21 20 C-20.67 19.01 -20.34 18.02 -20 17 C-18.51294684 15.73923754 -17.0223766 14.48148153 -15.4921875 13.2734375 C-13.67850185 11.72563247 -12.41370654 9.90850382 -11 8 C-10.34 8 -9.68 8 -9 8 C-8.67 7.01 -8.34 6.02 -8 5 C-3.58139535 0 -3.58139535 0 0 0 Z " fill="#004DFD" transform="translate(394,315)"/>
<path d="M0 0 C25.41 0 50.82 0 77 0 C79.94298575 10.59474871 82.85978086 21.13356906 85.453125 31.80859375 C85.75497208 33.04420044 86.05681915 34.27980713 86.36781311 35.55285645 C87.1692292 38.83827737 87.96570283 42.12487449 88.7602272 45.41196823 C89.25473521 47.45708322 89.75051809 49.50188628 90.24642944 51.54666138 C94.96945079 71.04206548 99.41722979 90.57690069 103.38574219 110.24194336 C103.55222763 111.06561401 103.71871307 111.88928467 103.89024353 112.73791504 C104.19153978 114.23595054 104.48984958 115.73459204 104.78419495 117.23400879 C105.6494204 121.57058271 106.735844 125.7674668 108 130 C108.13177643 129.424207 108.26355286 128.848414 108.39932251 128.25517273 C114.59503782 101.2274847 120.97875235 74.28969926 128.375 47.5625 C128.656922 46.54264008 128.93884399 45.52278015 129.22930908 44.47201538 C133.35003304 29.60794313 137.68090039 14.80834151 142 0 C166.75 0 191.5 0 217 0 C218.01049609 4.04198435 218.30321411 7.84184241 218.49989319 11.9752655 C218.56242811 13.18980729 218.56242811 13.18980729 218.62622637 14.42888528 C218.7651101 17.14536483 218.89828873 19.86209395 219.03149414 22.57885742 C219.12982672 24.52542796 219.22850355 26.47198114 219.32749939 28.41851807 C219.59556046 33.70985973 219.85862282 39.00143931 220.12068486 44.29308105 C220.39569584 49.83169175 220.67486408 55.37009304 220.95347595 60.90852356 C221.42102181 70.21532894 221.88544226 79.5222862 222.34790039 88.8293457 C222.88212157 99.58011185 223.42069815 110.33065274 223.96175677 121.0810768 C224.482376 131.42648979 225.00042032 141.77203002 225.51711845 152.11763954 C225.73687064 156.51736463 225.95742354 160.91704848 226.17860603 165.31670189 C226.43927096 170.50480357 226.69764552 175.69301453 226.95427895 180.88131714 C227.04864259 182.78200913 227.14376117 184.68266382 227.23970413 186.58327675 C227.37092326 189.18535774 227.49934851 191.78756259 227.62709045 194.38981628 C227.6844315 195.50784827 227.6844315 195.50784827 227.74293095 196.64846677 C227.9909288 201.7845672 228 206.84260094 228 212 C209.52 212 191.04 212 172 212 C171.50999856 199.50034058 171.02678581 187.00061623 170.5625 174.5 C170.52772427 173.56394424 170.49294853 172.62788849 170.45711899 171.66346741 C169.41047403 143.36149405 168.6490841 115.06949004 168.3125 86.75 C168.29841536 85.56641403 168.29841536 85.56641403 168.28404617 84.35891724 C168.17301047 74.90608689 168.07750572 65.45316992 168 56 C167.7960965 56.84834412 167.59219299 57.69668823 167.3821106 58.57073975 C161.15421276 84.32639341 154.08127934 109.79973817 146.73742676 135.25714111 C145.29282291 140.27031517 143.85586733 145.28568076 142.41796875 150.30078125 C136.99204145 169.21421044 131.53030517 188.11681308 126 207 C111.15 207 96.3 207 81 207 C79.15073081 201.45219243 77.46641403 196.22922833 76.08984375 190.59912109 C75.8374163 189.57231153 75.8374163 189.57231153 75.5798893 188.52475834 C75.02830999 186.27530087 74.48257446 184.02447938 73.9375 181.7734375 C73.54543747 180.16364164 73.15329486 178.55386529 72.76107788 176.94410706 C71.71557348 172.64433437 70.67716227 168.34288169 69.64165497 164.04069138 C69.21387675 162.26352955 68.78561844 160.48648322 68.35688019 158.70955276 C60.30777878 125.34846272 52.62263831 91.8707163 47 58 C46.9699994 58.75722162 46.9399988 59.51444324 46.90908909 60.29461098 C46.17870398 78.7230947 45.44413154 97.15140716 44.7049036 115.57953835 C44.34751898 124.4912588 43.99154954 133.40303158 43.63891602 142.31494141 C43.33154208 150.08293983 43.02150841 157.85082677 42.70828623 165.61859167 C42.54254525 169.73119446 42.3781327 173.84384064 42.21690559 177.95662308 C42.06505283 181.82919889 41.90963898 185.70161556 41.75151634 189.57394028 C41.69416871 190.99364255 41.63811199 192.41339766 41.58345795 193.83320618 C41.50849387 195.77554959 41.42838437 197.71769236 41.34803772 199.65982056 C41.30471345 200.74569269 41.26138918 201.83156483 41.21675205 202.95034218 C41.00096804 205.98637994 40.50038061 208.99771632 40 212 C22.51 212 5.02 212 -13 212 C-11.96049049 194.47903638 -10.91967546 176.95815568 -9.875 159.4375 C-9.79699535 158.12918339 -9.71899071 156.82086678 -9.63862228 155.47290421 C-7.34624483 117.04021344 -5.00171923 78.61120097 -2.5625 40.1875 C-2.49674522 39.15166149 -2.43099045 38.11582298 -2.3632431 37.04859543 C-1.57897477 24.69883931 -0.79010598 12.34938548 0 0 Z " fill="#000000" transform="translate(496,408)"/>
<path d="M0 0 C2.76992803 2.39408277 4.94154687 4.86438489 7.1015625 7.81640625 C8.30711655 5.40529816 8.38317228 3.49948611 8.6015625 0.81640625 C8.99045139 -3.96137153 8.99045139 -3.96137153 10.1015625 -6.18359375 C26.2715625 -6.18359375 42.4415625 -6.18359375 59.1015625 -6.18359375 C59.03845991 12.52440736 58.96308408 31.23223145 58.86584759 49.9400835 C58.82107333 58.6284189 58.7816175 67.31671498 58.75512695 76.00512695 C58.73199682 83.58679807 58.69843472 91.16834282 58.65286094 98.74991339 C58.62912887 102.75627079 58.61027022 106.76250461 58.60394859 110.76893044 C58.49860662 169.67523589 58.49860662 169.67523589 37.4140625 192.12890625 C24.10071198 204.59375795 7.05631647 210.81565943 -10.8984375 212.81640625 C-11.73761719 212.92597656 -12.57679687 213.03554688 -13.44140625 213.1484375 C-32.10406059 215.26598527 -51.23760241 213.90152166 -69.4609375 209.50390625 C-70.25741699 209.31546143 -71.05389648 209.1270166 -71.87451172 208.93286133 C-77.9829833 207.35444655 -83.3543352 204.80180432 -88.8984375 201.81640625 C-87.54582155 195.84934006 -86.17630992 189.88650986 -84.79077148 183.92700195 C-84.32154651 181.89781115 -83.85701245 179.86752981 -83.3972168 177.83618164 C-82.73666904 174.92166578 -82.05951944 172.01144875 -81.37890625 169.1015625 C-81.17565231 168.18802505 -80.97239838 167.27448761 -80.76298523 166.33326721 C-80.5630043 165.49247116 -80.36302338 164.65167511 -80.15698242 163.78540039 C-79.98599533 163.04149551 -79.81500824 162.29759064 -79.63883972 161.53114319 C-79.27234062 160.6823484 -79.27234062 160.6823484 -78.8984375 159.81640625 C-74.88121122 158.47733082 -72.63965172 159.95051813 -68.9609375 161.56640625 C-52.46113543 168.49528389 -34.02136987 172.0961631 -16.7109375 166.0078125 C-9.56070275 162.97889361 -5.11715831 158.96125904 -1.8984375 151.81640625 C0.49501021 144.76102224 1.47279211 138.24099836 1.1015625 130.81640625 C0.3796875 131.55890625 -0.3421875 132.30140625 -1.0859375 133.06640625 C-10.95583259 142.71697034 -22.42423672 146.72856337 -36.0859375 147.12890625 C-53.34513551 146.76427531 -69.47632413 141.09138799 -81.8984375 128.81640625 C-98.48427658 110.04609081 -102.82227473 87.11385931 -101.8984375 62.81640625 C-100.55085971 42.18300199 -92.49136508 23.45888536 -77.8984375 8.81640625 C-77.21136719 8.10613281 -76.52429687 7.39585937 -75.81640625 6.6640625 C-56.5472513 -11.96159562 -21.81791513 -16.4522715 0 0 Z M-36.5859375 42.84375 C-44.36994905 54.54293403 -45.42755481 68.93524717 -42.7734375 82.44140625 C-40.57708912 91.12368483 -36.28786487 97.73617493 -28.8984375 102.81640625 C-23.18551113 105.36899037 -17.79995562 105.59423184 -11.8359375 103.75390625 C-6.65286025 101.64041844 -3.60411999 97.67735597 -0.796875 92.96875 C1.9761742 86.32548865 1.32196484 78.74023144 1.34179688 71.66845703 C1.35147216 69.58585185 1.38253378 67.5042481 1.4140625 65.421875 C1.49578804 55.26263891 1.05793604 45.85935217 -6.30859375 38.22265625 C-10.97250982 34.09732509 -15.31646478 33.25433066 -21.375 33.47265625 C-27.94315241 34.36738909 -32.56017852 37.69121608 -36.5859375 42.84375 Z " fill="#004EFF" transform="translate(1672.8984375,471.18359375)"/>
<path d="M0 0 C44.88 0 89.76 0 136 0 C136 15.51 136 31.02 136 47 C109.93 47 83.86 47 57 47 C57 59.54 57 72.08 57 85 C81.42 85 105.84 85 131 85 C131 100.51 131 116.02 131 132 C106.58 132 82.16 132 57 132 C57 158.4 57 184.8 57 212 C38.19 212 19.38 212 0 212 C0 142.04 0 72.08 0 0 Z " fill="#004EFF" transform="translate(1111,408)"/>
<path d="M0 0 C2.21731361 1.65241742 4.27017396 3.38306206 6.31640625 5.2421875 C7.06148437 5.89574219 7.8065625 6.54929687 8.57421875 7.22265625 C21.61556877 19.35774297 29.3340672 36.7662398 30.53759766 54.50170898 C31.0074374 68.82582324 31.24017734 82.64549936 26.31640625 96.2421875 C25.94257812 97.32113281 25.56875 98.40007812 25.18359375 99.51171875 C22.52558385 106.5087978 18.9493499 112.38509207 14.31640625 118.2421875 C13.6821875 119.06460938 13.04796875 119.88703125 12.39453125 120.734375 C-1.27724117 137.23301766 -21.76318884 145.25769652 -42.68359375 147.2421875 C-67.62688458 149.13408356 -91.45244836 143.66262702 -110.68359375 127.2421875 C-111.33585937 126.70207031 -111.988125 126.16195312 -112.66015625 125.60546875 C-127.25151172 112.37997076 -134.01745669 91.77875445 -134.96875 72.59765625 C-135.62267401 49.77570814 -130.15413432 27.98841593 -114.87109375 10.4296875 C-86.00061031 -19.83005229 -34.11956936 -22.3490629 0 0 Z M-66.30859375 32.625 C-75.34167614 43.24913667 -76.62685876 58.84410497 -75.85205078 72.2265625 C-74.87563267 83.90961746 -72.42182783 94.17583135 -63.55859375 102.2421875 C-58.98916581 106.08264055 -55.15229675 106.60981768 -49.3125 106.5078125 C-44.10702838 105.98185103 -40.43467874 104.22754463 -36.9609375 100.2890625 C-29.70045631 90.08514299 -28.49096077 79.37734968 -28.43359375 67.1796875 C-28.41296875 66.11041016 -28.39234375 65.04113281 -28.37109375 63.93945312 C-28.31205598 51.72601535 -30.56885279 39.64697785 -39.3125 30.546875 C-47.72478723 23.71555126 -58.60463772 25.54908387 -66.30859375 32.625 Z " fill="#004EFF" transform="translate(1398.68359375,475.7578125)"/>
<path d="M0 0 C13.46203234 13.06479204 18.56578904 30.66204127 18.84960938 48.99926758 C18.87513548 51.31498689 18.89047394 53.63038917 18.89802551 55.94623756 C18.90647473 58.46142923 18.92712748 60.97628448 18.95056152 63.49137878 C18.99837166 68.84836744 19.03146635 74.20539144 19.0625 79.5625 C19.09860747 85.74600882 19.14129069 91.9293542 19.19844055 98.11270714 C19.21794537 100.54422419 19.22671398 102.97560347 19.23474121 105.40718079 C19.34461811 118.03093965 20.45850845 130.05409722 21.5625 142.75 C4.4025 142.75 -12.7575 142.75 -30.4375 142.75 C-31.4275 138.79 -32.4175 134.83 -33.4375 130.75 C-34.51 131.61625 -35.5825 132.4825 -36.6875 133.375 C-51.75183601 144.55432304 -69.40562715 147.86965305 -87.76171875 145.28125 C-101.77240963 142.20439239 -112.37950505 135.32272803 -120.60546875 123.66796875 C-128.2461192 111.49831867 -129.27116972 96.90329121 -126.75390625 82.96484375 C-122.70926034 68.88410551 -114.36797229 57.83360788 -101.9375 50 C-82.64872836 39.51482157 -60.10992163 36.36603977 -38.4375 36.75 C-39.86230439 32.39177481 -40.82572623 29.72114575 -44.875 27.375 C-58.47938371 21.16949164 -76.6693443 24.16419743 -90.4375 28.75 C-93.65536146 29.9704458 -96.79745236 31.25752087 -99.921875 32.69921875 C-102.43703742 33.74980678 -104.76642096 34.25480934 -107.4375 34.75 C-108.72766923 30.28663974 -110.00913403 25.82090517 -111.28271484 21.3527832 C-111.71687289 19.83420131 -112.1533715 18.31628649 -112.59228516 16.79907227 C-113.22399561 14.61386978 -113.84715584 12.42637982 -114.46875 10.23828125 C-114.66561401 9.56412674 -114.86247803 8.88997223 -115.06530762 8.19538879 C-116.07042955 4.62372858 -116.66233217 1.46285345 -116.4375 -2.25 C-107.43274856 -6.8204462 -98.19623815 -9.79893785 -88.4375 -12.25 C-87.78023926 -12.41806152 -87.12297852 -12.58612305 -86.44580078 -12.75927734 C-58.98156808 -19.42334185 -22.47503957 -18.89255206 0 0 Z M-66.34765625 79.49609375 C-70.40740394 84.11249715 -71.8101687 87.20102346 -71.7109375 93.36328125 C-71.24335676 97.44459313 -69.98368421 99.48566126 -67.4375 102.75 C-62.64119195 105.60933749 -57.9623145 106.6796055 -52.4375 105.75 C-46.35450169 103.82543556 -41.80045273 100.16928051 -38.4375 94.75 C-36.25972087 89.71756445 -36.19409907 85.24858072 -36.3125 79.875 C-36.32152344 79.09125 -36.33054687 78.3075 -36.33984375 77.5 C-36.36321937 75.58319945 -36.39908347 73.66655809 -36.4375 71.75 C-46.23289876 71.75 -58.76525138 72.56493837 -66.34765625 79.49609375 Z " fill="#000000" transform="translate(874.4375,477.25)"/>
<path d="M0 0 C3.94740042 1.97370021 6.4359866 4.20364224 9.4375 7.3125 C9.90220703 7.78623047 10.36691406 8.25996094 10.84570312 8.74804688 C12.23322758 10.16266386 13.61663507 11.58131512 15 13 C16.66510115 14.66823071 18.331957 16.33471081 20 18 C27.66666667 25.66666667 35.33333333 33.33333333 43 41 C43.82282471 41.82209961 44.64564941 42.64419922 45.4934082 43.49121094 C48.1504387 46.15057057 50.80015671 48.81707859 53.44921875 51.484375 C54.99709188 53.0396095 56.54543669 54.59437267 58.09399414 56.14892578 C59.16258525 57.22259217 60.23028402 58.29714737 61.29711914 59.37255859 C62.84548423 60.93300733 64.39701707 62.49024373 65.94921875 64.046875 C67.33113403 65.43664551 67.33113403 65.43664551 68.7409668 66.85449219 C70.80579202 69.0244289 70.80579202 69.0244289 73 70 C73 70.66 73 71.32 73 72 C73.66 72 74.32 72 75 72 C76.55078125 73.609375 76.55078125 73.609375 78.3125 75.75 C80.30558414 78.10060645 82.08647948 80.06918358 84.5 82 C87.45321933 84.36257546 89.72005115 87.04649461 92.171875 89.9140625 C94.96286002 93.09864797 97.97764411 96.03755865 101 99 C102.66813964 100.66519239 104.33450006 102.33216742 106 104 C107.27074805 105.27091862 108.54158885 106.54174449 109.8125 107.8125 C112.60416667 110.60416667 115.39583333 113.39583333 118.1875 116.1875 C118.84540527 116.84492187 119.50331055 117.50234375 120.18115234 118.1796875 C121.72065832 119.72043335 123.25539393 121.26594346 124.7890625 122.8125 C126.10650495 124.11597663 127.4481634 125.39667228 128.8359375 126.625 C132.94873493 130.2993774 132.94873493 130.2993774 133.1875 133.5625 C131.65125779 136.71583927 129.51569251 138.55552313 127 141 C126.14212891 141.85787109 125.28425781 142.71574219 124.40039062 143.59960938 C18 250 18 250 15.32666016 252.66674805 C13.67789081 254.32018862 12.047273 255.99182066 10.4296875 257.67578125 C9.16511719 258.98095703 9.16511719 258.98095703 7.875 260.3125 C7.02679688 261.19550781 6.17859375 262.07851563 5.3046875 262.98828125 C3 265 3 265 0 265 C0 177.55 0 90.1 0 0 Z " fill="#000000" transform="translate(38,403)"/>
<path d="M0 0 C14.32703226 12.14583344 23.03260724 30.79316425 24.8125 49.375 C25.3856458 61.6127836 25.82700779 74.28795328 23.8125 86.375 C-7.5375 86.375 -38.8875 86.375 -71.1875 86.375 C-66.74687617 95.25624767 -62.22681331 98.41662953 -52.93359375 101.61328125 C-35.03057179 106.57926885 -13.89191451 104.16185413 3.89086914 99.7421875 C5.8125 99.375 5.8125 99.375 9.8125 99.375 C11.76171125 107.33427928 13.46723866 115.33814021 15.0625 123.375 C15.24973633 124.2827417 15.43697266 125.1904834 15.62988281 126.12573242 C17.18935451 134.1385246 17.18935451 134.1385246 15.8125 138.375 C-17.20757965 149.75658059 -56.37541612 152.78687499 -88.625 137.5 C-93.97416901 134.66255175 -98.63848726 131.36072035 -103.1875 127.375 C-103.86425781 126.80394531 -104.54101562 126.23289062 -105.23828125 125.64453125 C-119.3879646 112.75870311 -125.56281299 92.3310615 -126.4765625 73.6875 C-127.10139436 51.20728551 -121.3186835 27.90352195 -105.75 11 C-103.92386181 9.0935718 -102.06297286 7.23402135 -100.1875 5.375 C-99.55328125 4.70726562 -98.9190625 4.03953125 -98.265625 3.3515625 C-73.44586427 -20.91908848 -26.58074771 -19.68036928 0 0 Z M-65.1875 30.375 C-69.63440366 36.07948283 -70.51128522 39.8320335 -72.1875 47.375 C-57.3375 47.375 -42.4875 47.375 -27.1875 47.375 C-28.97602215 38.43238927 -30.36604017 33.19645983 -36.5625 27 C-45.85034545 21.25038139 -57.50808498 22.4822679 -65.1875 30.375 Z " fill="#004EFF" transform="translate(1883.1875,475.625)"/>
<path d="M0 0 C18.81 0 37.62 0 57 0 C57 73.59 57 147.18 57 223 C38.19 223 19.38 223 0 223 C0 149.41 0 75.82 0 0 Z " fill="#000000" transform="translate(1018,397)"/>
<path d="M0 0 C0 17.82 0 35.64 0 54 C-7.59 54 -15.18 54 -23 54 C-32.69081112 56.90724334 -37.72694057 58.72087189 -42.9375 67.125 C-44.91223371 72.46839709 -45.16238903 77.53141232 -45.20532227 83.18676758 C-45.21522186 83.99704407 -45.22512146 84.80732056 -45.23532104 85.64215088 C-45.26680619 88.30958169 -45.29164193 90.97703029 -45.31640625 93.64453125 C-45.336987 95.49827018 -45.35798377 97.35200454 -45.37937927 99.20573425 C-45.43448417 104.07677497 -45.48394439 108.94785724 -45.53222656 113.81896973 C-45.5913752 119.66776813 -45.65753927 125.51649087 -45.72252655 131.36522675 C-45.82039029 140.24343816 -45.90934605 149.12169885 -46 158 C-64.81 158 -83.62 158 -103 158 C-103.33 106.85 -103.66 55.7 -104 3 C-87.83 3 -71.66 3 -55 3 C-53.875 16.5 -53.875 16.5 -53.9375 22.75 C-53.94652344 23.94109375 -53.95554687 25.1321875 -53.96484375 26.359375 C-53.97644531 27.23078125 -53.98804688 28.1021875 -54 29 C-53.34 29 -52.68 29 -52 29 C-51.79375 28.195625 -51.5875 27.39125 -51.375 26.5625 C-47.24985846 15.87463328 -39.54428651 7.88185799 -29.1875 3.0625 C-18.86261126 -1.33265466 -13.13535686 0 0 0 Z " fill="#004EFF" transform="translate(1558,462)"/>
<path d="M0 0 C18.81 0 37.62 0 57 0 C57 51.15 57 102.3 57 155 C38.19 155 19.38 155 0 155 C0 103.85 0 52.7 0 0 Z " fill="#000000" transform="translate(927,465)"/>
<path d="M0 0 C5.95247947 5.8461852 8.46838172 13.00293179 8.5625 21.23828125 C8.09965386 29.61579647 5.95108715 35.48888734 -0.15625 41.31640625 C-8.92666385 48.3391508 -18.68313217 48.30242436 -29.46875 47.50390625 C-36.0875337 46.36838076 -41.0469318 42.43555715 -45.46875 37.50390625 C-50.85146208 29.32900924 -51.2241819 20.99869516 -49.46875 11.50390625 C-46.56343895 3.88136972 -41.73919785 -0.93556621 -34.46875 -4.49609375 C-23.50639464 -8.97673899 -9.3273696 -7.36950192 0 0 Z " fill="#000000" transform="translate(976.46875,402.49609375)"/>
</svg>
